# Blender 4.4.0
# www.blender.org
mtllib fence.mtl
o fence_1
v 1.389597 0.000002 -10.342741
v -1.389599 0.000002 -10.342741
v 1.389599 -0.000002 8.777775
v -1.389597 -0.000002 8.777775
v 1.389597 0.000002 -14.329343
v -1.389599 0.000002 -14.329343
v -1.389599 5.251898 -14.329342
v 1.389597 5.251898 -14.329343
v 1.389599 5.251894 12.286899
v -1.389597 5.251894 12.286900
v -1.389597 -0.000002 12.286899
v 1.389599 -0.000002 12.286899
v 1.389597 7.152183 -10.342740
v -1.389599 7.152183 -10.342739
v 1.389597 7.152183 -14.329342
v -1.389599 7.152183 -14.329341
v 1.389599 7.152181 8.777776
v -1.389597 7.152181 8.777777
v -1.389597 7.152179 12.286901
v 1.389599 7.152179 12.286900
v 1.621196 7.293810 -10.010524
v -1.621199 7.293810 -10.010523
v 1.621196 7.293810 -14.661559
v -1.621199 7.293810 -14.661558
v 1.621198 7.293808 8.485350
v -1.621197 7.293808 8.485351
v -1.621197 7.293807 12.579327
v 1.621198 7.293807 12.579326
v 1.447255 8.002691 -10.265253
v 1.621196 7.828750 -10.010524
v -1.447257 8.002691 -10.265253
v -1.621199 7.828750 -10.010523
v 1.447255 8.002691 -14.406829
v 1.621196 7.828750 -14.661559
v -1.447257 8.002691 -14.406829
v -1.621199 7.828750 -14.661558
v 1.447257 8.002688 8.740078
v 1.621198 7.828749 8.485350
v -1.447255 8.002688 8.740078
v -1.621197 7.828749 8.485351
v -1.447255 8.002688 12.324597
v -1.621197 7.828747 12.579327
v 1.447257 8.002688 12.324597
v 1.621198 7.828747 12.579326
v 1.389597 6.654590 -10.342740
v 1.114778 6.379771 -10.342740
v 1.389597 6.104953 -10.342741
v 1.389597 6.274581 -10.714551
v 1.389599 6.654585 8.777776
v 1.389599 6.262731 9.141912
v 1.389599 6.104949 8.777775
v 1.114781 6.379767 8.777776
v -1.389599 6.654590 -10.342739
v -1.389599 6.274581 -10.714550
v -1.389599 6.104953 -10.342740
v -1.114780 6.379771 -10.342739
v -1.389597 6.654585 8.777777
v -1.114779 6.379767 8.777777
v -1.389597 6.104949 8.777776
v -1.389597 6.262731 9.141912
v 1.621196 7.828750 -10.010524
v 1.621196 7.828750 -14.661559
v 1.447255 8.002691 -14.406829
v 1.447255 8.002691 -10.265253
v -1.447257 8.002691 -10.265253
v -1.621199 7.828750 -10.010523
v -1.447257 8.002691 -14.406829
v -1.621199 7.828750 -14.661558
v 1.447257 8.002688 8.740078
v 1.447257 8.002688 12.324597
v 1.621198 7.828747 12.579326
v 1.621198 7.828749 8.485350
v -1.621197 7.828749 8.485351
v -1.447255 8.002688 8.740078
v -1.621197 7.828747 12.579327
v -1.447255 8.002688 12.324597
v 1.389597 6.104953 -10.342741
v 1.114778 6.379771 -10.342740
v 1.114781 6.379767 8.777776
v 1.389599 6.104949 8.777775
v -1.114780 6.379771 -10.342739
v -1.389599 6.104953 -10.342740
v -1.389597 6.104949 8.777776
v -1.114779 6.379767 8.777777
vn -0.0000 -0.0000 -1.0000
vn -0.0000 1.0000 -0.0000
vn -0.0000 -0.0000 1.0000
vn -0.0000 -1.0000 -0.0000
vn -1.0000 -0.0000 -0.0000
vn 1.0000 -0.0000 -0.0000
vn -0.0000 -0.9199 0.3922
vn 0.5217 -0.8531 -0.0000
vn -0.0000 -0.9199 -0.3922
vn -0.5217 -0.8531 -0.0000
vn -0.0000 -0.9000 -0.4359
vn -0.0000 -0.9000 0.4359
vn 0.7950 -0.0577 0.6039
vn 0.8143 0.1200 0.5679
vn 0.5731 -0.5731 0.5857
vn 0.8113 0.1356 -0.5687
vn 0.7866 -0.0639 -0.6141
vn 0.5627 -0.5627 -0.6056
vn -0.8143 0.1201 0.5679
vn -0.7950 -0.0577 0.6039
vn -0.5731 -0.5731 0.5857
vn -0.7866 -0.0639 -0.6142
vn -0.8113 0.1355 -0.5687
vn -0.5627 -0.5627 -0.6056
vn 0.6730 0.6730 0.3070
vn 0.8113 0.1355 -0.5687
vn 0.6761 0.6761 -0.2929
vn 0.7866 -0.0640 -0.6141
vn -0.8143 0.1200 0.5679
vn -0.6730 0.6730 0.3070
vn -0.6761 0.6761 -0.2929
vn 0.7071 0.7071 -0.0000
vn -0.0000 0.8258 0.5639
vn -0.7071 0.7071 -0.0000
vn -0.0000 0.8258 -0.5639
vt 0.327013 0.596963
vt 0.241563 0.835740
vt 0.241563 0.596963
vt 0.122201 0.937098
vt 0.178953 0.700373
vt 0.178953 0.937098
vt 0.419333 0.848299
vt 0.533754 0.612626
vt 0.533754 0.848299
vt 0.015416 0.940427
vt 0.092591 0.750007
vt 0.092591 0.940427
vt 0.909225 0.140857
vt 0.579710 0.358987
vt 0.579710 0.140857
vt 0.411323 0.145165
vt 0.081808 0.356017
vt 0.081808 0.145165
vt 0.015416 0.750007
vt 0.092591 0.710304
vt 0.511006 0.328507
vt 0.511006 0.140857
vt 0.015416 0.975375
vt 0.021333 0.326554
vt 0.021333 0.145165
vt 0.327013 0.835740
vt 0.241563 0.922136
vt 0.573302 0.365048
vt 0.579710 0.396404
vt 0.511006 0.396404
vt 0.419333 0.933572
vt 0.075532 0.361467
vt 0.081808 0.392186
vt 0.021333 0.392186
vt 0.599773 0.700191
vt 0.794219 0.710970
vt 0.584816 0.710970
vt 0.480027 0.392186
vt 0.405598 0.397078
vt 0.411323 0.392186
vt 0.327013 0.922136
vt 0.234443 0.928575
vt 0.585435 0.401465
vt 0.505281 0.401465
vt 0.959716 0.897713
vt 0.698473 0.909751
vt 0.718568 0.897713
vt 0.909225 0.396404
vt 0.974740 0.401465
vt 0.904186 0.401465
vt 0.543289 0.939927
vt 0.409798 0.939927
vt 0.086847 0.397078
vt 0.016293 0.397078
vt 0.584816 0.751684
vt 0.485752 0.397078
vt 0.405598 0.415553
vt 0.334134 0.928575
vt 0.234443 0.952896
vt 0.505281 0.420578
vt 0.979812 0.909751
vt 0.698473 0.955219
vt 0.904186 0.420578
vt 0.409798 0.963932
vt 0.016293 0.415553
vt 0.187415 0.650056
vt 0.113739 0.701332
vt 0.113739 0.650056
vt 0.187415 0.981010
vt 0.113739 0.936631
vt 0.187415 0.936631
vt 0.417731 0.361876
vt 0.411323 0.356017
vt 0.480027 0.145165
vt 0.480027 0.326554
vt 0.742414 0.832061
vt 0.959716 0.855420
vt 0.617522 0.641404
vt 0.779262 0.662320
vt 0.915501 0.364624
vt 0.969700 0.396404
vt 0.909225 0.358987
vt 0.969700 0.140857
vt 0.969700 0.328507
vt 0.411323 0.365509
vt 0.411323 0.375001
vt 0.081808 0.365509
vt 0.081808 0.375000
vt 0.579710 0.368806
vt 0.579710 0.378625
vt 0.909225 0.368806
vt 0.909225 0.378625
vt 0.122201 0.700373
vt 0.419333 0.612626
vt 0.015416 0.710304
vt 0.092591 0.975375
vt 0.533754 0.933572
vt 0.779262 0.700191
vt 0.794219 0.751684
vt 0.485752 0.415553
vt 0.334134 0.952896
vt 0.585435 0.420578
vt 0.979812 0.955219
vt 0.974740 0.420578
vt 0.543289 0.963932
vt 0.086847 0.415553
vt 0.187415 0.701332
vt 0.113739 0.981010
vt 0.718568 0.855420
vt 0.935870 0.832061
vt 0.599773 0.662320
vt 0.761513 0.641404
vt 0.481362 0.421561
vt 0.409988 0.421561
vt 0.782985 0.764922
vt 0.581045 0.426793
vt 0.328786 0.960804
vt 0.239791 0.960804
vt 0.082458 0.421561
vt 0.964719 0.970003
vt 0.713565 0.970003
vt 0.970350 0.426793
vt 0.908576 0.426793
vt 0.416959 0.971737
vt 0.536128 0.971737
vt 0.596050 0.764922
vt 0.509671 0.426793
vt 0.020683 0.421561
s 1
usemtl マテリアル.013
f 6/1/1 8/2/1 5/3/1
f 52/4/2 56/5/2 58/6/2
f 10/7/3 12/8/3 9/9/3
f 4/10/4 1/11/4 3/12/4
f 4/13/5 55/14/5 2/15/5
f 1/16/6 51/17/6 3/18/6
f 2/19/4 5/20/4 1/11/4
f 55/14/5 7/21/5 6/22/5
f 3/12/4 11/23/4 4/10/4
f 51/17/6 9/24/6 12/25/6
f 7/26/1 15/27/1 8/2/1
f 54/28/5 14/29/5 16/30/5
f 9/9/3 19/31/3 10/7/3
f 50/32/6 17/33/6 20/34/6
f 14/35/7 21/36/7 22/37/7
f 15/38/8 21/39/8 13/40/8
f 16/41/9 23/42/9 15/27/9
f 16/30/10 22/43/10 24/44/10
f 18/45/11 25/46/11 17/47/11
f 18/48/10 27/49/10 26/50/10
f 19/31/12 28/51/12 27/52/12
f 20/34/8 25/53/8 28/54/8
f 21/36/3 32/55/3 22/37/3
f 23/56/6 30/57/6 21/39/6
f 24/58/1 34/59/1 23/42/1
f 22/43/5 36/60/5 24/44/5
f 26/61/1 38/62/1 25/46/1
f 27/49/5 40/63/5 26/50/5
f 28/51/3 42/64/3 27/52/3
f 25/53/6 44/65/6 28/54/6
f 35/66/2 29/67/2 33/68/2
f 41/69/2 37/70/2 39/71/2
f 48/72/6 15/38/6 13/40/6
f 47/73/6 5/74/6 8/75/6
f 52/76/1 57/77/1 17/47/1
f 56/78/3 45/79/3 14/35/3
f 60/80/5 19/81/5 18/48/5
f 59/82/5 11/83/5 10/84/5
f 46/85/13 48/72/14 45/86/15
f 50/32/16 52/87/17 49/88/18
f 54/28/19 56/89/20 53/90/21
f 58/91/22 60/80/23 57/92/24
f 6/1/1 7/26/1 8/2/1
f 52/4/2 46/93/2 56/5/2
f 10/7/3 11/94/3 12/8/3
f 4/10/4 2/19/4 1/11/4
f 4/13/5 59/82/5 55/14/5
f 1/16/6 47/73/6 51/17/6
f 2/19/4 6/95/4 5/20/4
f 6/22/5 2/15/5 55/14/5
f 55/14/5 54/28/5 7/21/5
f 3/12/4 12/96/4 11/23/4
f 12/25/6 3/18/6 51/17/6
f 51/17/6 50/32/6 9/24/6
f 7/26/1 16/41/1 15/27/1
f 16/30/5 7/21/5 54/28/5
f 54/28/5 53/90/5 14/29/5
f 9/9/3 20/97/3 19/31/3
f 20/34/6 9/24/6 50/32/6
f 50/32/6 49/88/6 17/33/6
f 14/35/7 13/98/7 21/36/7
f 15/38/8 23/56/8 21/39/8
f 16/41/9 24/58/9 23/42/9
f 16/30/10 14/29/10 22/43/10
f 18/45/11 26/61/11 25/46/11
f 18/48/10 19/81/10 27/49/10
f 19/31/12 20/97/12 28/51/12
f 20/34/8 17/33/8 25/53/8
f 21/36/3 30/99/3 32/55/3
f 23/56/6 34/100/6 30/57/6
f 24/58/1 36/101/1 34/59/1
f 22/43/5 32/102/5 36/60/5
f 26/61/1 40/103/1 38/62/1
f 27/49/5 42/104/5 40/63/5
f 28/51/3 44/105/3 42/64/3
f 25/53/6 38/106/6 44/65/6
f 35/66/2 31/107/2 29/67/2
f 41/69/2 43/108/2 37/70/2
f 13/40/6 45/86/6 48/72/6
f 48/72/6 8/75/6 15/38/6
f 8/75/6 48/72/6 47/73/6
f 47/73/6 1/16/6 5/74/6
f 17/47/1 49/109/1 52/76/1
f 52/76/1 58/110/1 57/77/1
f 57/77/1 18/45/1 17/47/1
f 14/35/3 53/111/3 56/78/3
f 56/78/3 46/112/3 45/79/3
f 45/79/3 13/98/3 14/35/3
f 18/48/5 57/92/5 60/80/5
f 60/80/5 10/84/5 19/81/5
f 10/84/5 60/80/5 59/82/5
f 59/82/5 4/13/5 11/83/5
f 46/85/13 47/73/25 48/72/14
f 50/32/26 51/17/27 52/87/28
f 54/28/29 55/14/30 56/89/20
f 58/91/22 59/82/31 60/80/23
usemtl phong1SG.003
f 61/57/32 63/113/32 64/114/32
f 64/115/33 66/55/33 61/99/33
f 65/116/34 68/60/34 66/102/34
f 62/59/35 67/117/35 63/118/35
f 69/119/32 71/65/32 72/106/32
f 72/62/35 74/120/35 69/121/35
f 73/63/34 76/122/34 74/123/34
f 76/124/33 71/105/33 70/125/33
f 78/85/32 80/17/32 77/73/32
f 82/14/34 84/91/34 81/89/34
f 61/57/32 62/100/32 63/113/32
f 64/115/33 65/126/33 66/55/33
f 65/116/34 67/127/34 68/60/34
f 62/59/35 68/101/35 67/117/35
f 69/119/32 70/128/32 71/65/32
f 72/62/35 73/103/35 74/120/35
f 73/63/34 75/104/34 76/122/34
f 76/124/33 75/64/33 71/105/33
f 78/85/32 79/87/32 80/17/32
f 82/14/34 83/82/34 84/91/34
