# Blender 4.4.0
# www.blender.org
mtllib loftNurbs.mtl
o loftNurbs_1
v -21.171761 -0.000001 -5.226249
v -21.152285 -0.000001 -4.017988
v -21.114182 -0.000001 -1.654000
v -21.086775 -0.000001 0.046299
v -21.095867 0.172891 0.036894
v -21.122561 0.680546 0.009278
v -21.148762 1.178825 -0.017828
v -21.144836 1.180669 -0.106776
v -21.126801 1.317062 -0.573632
v -21.113295 1.886002 -1.135888
v -21.127153 3.136273 -1.473934
v -21.183134 4.452739 -1.726540
v -21.245680 5.390217 -1.924007
v -21.271109 5.702720 -1.993492
v -21.282183 5.924220 -2.045891
v -21.300579 6.292182 -2.132936
v -21.311796 6.516529 -2.186007
v -21.296553 6.501574 -2.464752
v -21.260414 6.466118 -3.125604
v -21.229982 6.436261 -3.682111
v -21.227219 6.418784 -3.697974
v -21.216860 6.353244 -3.757462
v -21.206997 6.290850 -3.814094
v -21.205027 6.278390 -3.825404
v -21.207546 4.326624 -3.852182
v -21.183567 2.249672 -4.306218
v -21.123255 1.206933 -5.259967
v -21.127356 0.544562 -5.341997
v -21.154945 0.138177 -5.280376
v -10.615751 -0.000001 -5.226249
v -10.596276 -0.000001 -4.017988
v -10.558173 -0.000001 -1.653999
v -10.530768 -0.000001 0.046300
v -10.539860 0.172891 0.036895
v -10.566554 0.680547 0.009279
v -10.592755 1.178826 -0.017827
v -10.588829 1.180670 -0.106776
v -10.570794 1.317063 -0.573631
v -10.557288 1.886003 -1.135888
v -10.571147 3.136273 -1.473934
v -10.627130 4.452739 -1.726539
v -10.689674 5.390218 -1.924007
v -10.715102 5.702720 -1.993492
v -10.726176 5.924221 -2.045890
v -10.744574 6.292183 -2.132936
v -10.755790 6.516530 -2.186007
v -10.740546 6.501575 -2.464751
v -10.704408 6.466119 -3.125604
v -10.673975 6.436262 -3.682111
v -10.671213 6.418785 -3.697974
v -10.660854 6.353245 -3.757461
v -10.650990 6.290851 -3.814093
v -10.649022 6.278390 -3.825403
v -10.651541 4.326624 -3.852182
v -10.627559 2.249673 -4.306217
v -10.567247 1.206933 -5.259967
v -10.571350 0.544562 -5.341996
v -10.598940 0.138177 -5.280376
v -0.059745 -0.000000 -5.226248
v -0.040270 -0.000000 -4.017987
v -0.002167 -0.000000 -1.653999
v 0.025238 0.000000 0.046300
v 0.016147 0.172892 0.036895
v -0.010547 0.680547 0.009279
v -0.036748 1.178826 -0.017827
v -0.032822 1.180670 -0.106775
v -0.014787 1.317063 -0.573631
v -0.001283 1.886003 -1.135887
v -0.015140 3.136274 -1.473933
v -0.071122 4.452740 -1.726539
v -0.133667 5.390219 -1.924006
v -0.159095 5.702721 -1.993491
v -0.170169 5.924222 -2.045890
v -0.188566 6.292184 -2.132935
v -0.199783 6.516530 -2.186007
v -0.184540 6.501575 -2.464751
v -0.148401 6.466120 -3.125603
v -0.117969 6.436263 -3.682110
v -0.115206 6.418786 -3.697973
v -0.104846 6.353245 -3.757461
v -0.094984 6.290851 -3.814093
v -0.093014 6.278391 -3.825403
v -0.095534 4.326625 -3.852181
v -0.071552 2.249673 -4.306217
v -0.011240 1.206934 -5.259966
v -0.015343 0.544563 -5.341996
v -0.042934 0.138178 -5.280375
vn -0.0000 -0.8261 -0.5636
vn -0.0000 -1.0000 -0.0000
vn 0.0005 -0.8292 -0.5589
vn -0.0000 -0.6834 0.7301
vn -0.0000 0.0543 0.9985
vn -0.0000 0.7189 0.6951
vn -0.0000 0.7222 0.6917
vn -0.0000 0.9882 0.1533
vn -0.0000 0.9884 0.1519
vn -0.0000 0.8587 0.5125
vn -0.0000 0.8589 0.5122
vn -0.0000 0.4986 0.8669
vn -0.0000 0.2249 0.9744
vn -0.0000 0.2243 0.9745
vn -0.0000 0.1973 0.9803
vn -0.0000 0.1973 0.9804
vn -0.0000 0.2116 0.9774
vn -0.0000 0.2115 0.9774
vn -0.0000 0.2236 0.9747
vn -0.0000 0.2302 0.9731
vn -0.0000 0.8006 0.5992
vn -0.0000 0.8032 0.5957
vn -0.0000 0.9986 -0.0536
vn 0.0005 0.9034 -0.4289
vn -0.0000 0.9032 -0.4293
vn -0.0000 0.6721 -0.7405
vn -0.0000 0.3716 -0.9284
vn -0.0000 0.1142 -0.9935
vn -0.0000 0.4584 -0.8887
vn -0.0000 0.4600 -0.8879
vn -0.0000 0.4200 -0.9075
vn -0.0000 -0.0136 -0.9999
vn -0.0000 -0.0152 -0.9999
vn -0.0000 -0.2589 -0.9659
vn 0.0001 -0.2619 -0.9651
vn -0.0000 -0.8226 -0.5686
vn -0.0000 -0.6876 0.7261
vn -0.0000 0.7159 0.6982
vn -0.0000 0.9886 0.1505
vn -0.0000 0.8590 0.5119
vn -0.0000 0.4984 0.8669
vn -0.0000 0.2255 0.9742
vn -0.0000 0.2113 0.9774
vn -0.0000 0.2234 0.9747
vn 0.0001 0.7985 0.6020
vn -0.0000 0.9031 -0.4294
vn -0.0000 0.3666 -0.9304
vn -0.0000 0.4616 -0.8871
vn -0.0000 0.4187 -0.9081
vn -0.0000 -0.0120 -0.9999
vn -0.0001 -0.2559 -0.9667
vn -0.0002 -0.6916 0.7223
vn -0.0000 0.4983 0.8670
vn -0.0002 0.3615 -0.9324
vn -0.0000 0.4175 -0.9087
vt 0.497835 0.213836
vt 0.475229 0.016710
vt 0.497835 0.016345
vt 0.478159 0.216154
vt 0.433932 0.019376
vt 0.478159 0.018663
vt 0.431002 0.214913
vt 0.399191 0.017935
vt 0.431002 0.017423
vt 0.004210 0.412917
vt 0.201530 0.417538
vt 0.004040 0.417538
vt 0.201031 0.431106
vt 0.003540 0.431106
vt 0.200541 0.444423
vt 0.003050 0.444423
vt 0.400391 0.785734
vt 0.402055 0.983151
vt 0.400391 0.983224
vt 0.402055 0.785660
vt 0.410789 0.982814
vt 0.200952 0.448118
vt 0.003714 0.463324
vt 0.003461 0.448118
vt 0.200945 0.496740
vt 0.003454 0.496740
vt 0.199898 0.531925
vt 0.002407 0.531925
vt 0.198728 0.556981
vt 0.001237 0.556981
vt 0.198252 0.565333
vt 0.000761 0.565333
vt 0.198045 0.571253
vt 0.000554 0.571253
vt 0.197701 0.581087
vt 0.000210 0.581087
vt 0.197491 0.587083
vt 0.000000 0.587083
vt 0.440955 0.788784
vt 0.446170 0.985989
vt 0.440955 0.986275
vt 0.446170 0.788499
vt 0.458534 0.985313
vt 0.458534 0.791729
vt 0.468945 0.988650
vt 0.458534 0.989220
vt 0.700170 0.584938
vt 0.897609 0.584471
vt 0.897661 0.584938
vt 0.700118 0.584471
vt 0.897415 0.582719
vt 0.699924 0.582719
vt 0.897231 0.581052
vt 0.699740 0.581052
vt 0.897194 0.580719
vt 0.699750 0.528554
vt 0.897241 0.528554
vt 0.896792 0.473043
vt 0.699301 0.473043
vt 0.895664 0.445174
vt 0.698250 0.427471
vt 0.895741 0.427471
vt 0.698766 0.416610
vt 0.896257 0.416610
vt 0.699081 0.412917
vt 0.896571 0.412917
vt 0.497835 0.411327
vt 0.475229 0.214200
vt 0.475229 0.411691
vt 0.431002 0.412404
vt 0.399191 0.215426
vt 0.201701 0.412917
vt 0.399021 0.417538
vt 0.398522 0.431106
vt 0.398032 0.444423
vt 0.400391 0.588243
vt 0.402055 0.588170
vt 0.410789 0.785323
vt 0.398442 0.448118
vt 0.201204 0.463324
vt 0.398436 0.496740
vt 0.397388 0.531925
vt 0.396218 0.556981
vt 0.395743 0.565333
vt 0.395535 0.571253
vt 0.395191 0.581087
vt 0.394981 0.587083
vt 0.440955 0.591293
vt 0.446170 0.591008
vt 0.458534 0.787823
vt 0.458534 0.590332
vt 0.468945 0.787253
vt 0.502679 0.584938
vt 0.502628 0.584471
vt 0.502434 0.582719
vt 0.502249 0.581052
vt 0.699703 0.580719
vt 0.502259 0.528554
vt 0.501811 0.473043
vt 0.698173 0.445174
vt 0.500759 0.427471
vt 0.501275 0.416610
vt 0.501590 0.412917
vt 0.433932 0.216866
vt 0.468945 0.791160
vt 0.399191 0.412917
vt 0.410789 0.587832
vt 0.398695 0.463324
vt 0.468945 0.589763
vt 0.502212 0.580719
vt 0.500682 0.445174
s 1
usemtl マテリアル.002
f 30/1/1 2/2/2 1/3/3
f 31/4/2 3/5/2 2/6/2
f 32/7/2 4/8/4 3/9/2
f 4/10/4 34/11/5 5/12/5
f 5/12/5 35/13/5 6/14/5
f 6/14/5 36/15/6 7/16/7
f 36/17/6 8/18/8 7/19/7
f 37/20/9 9/21/10 8/18/8
f 38/22/11 10/23/12 9/24/10
f 10/23/12 40/25/13 11/26/14
f 11/26/14 41/27/15 12/28/16
f 12/28/16 42/29/17 13/30/18
f 13/30/18 43/31/19 14/32/19
f 14/32/19 44/33/20 15/34/20
f 15/34/20 45/35/20 16/36/20
f 16/36/20 46/37/21 17/38/22
f 46/39/21 18/40/23 17/41/22
f 47/42/23 19/43/23 18/40/23
f 48/44/23 20/45/24 19/46/23
f 49/47/25 21/48/26 20/49/24
f 50/50/26 22/51/26 21/48/26
f 51/52/26 23/53/26 22/51/26
f 52/54/26 24/55/27 23/53/26
f 24/55/27 54/56/28 25/57/28
f 54/56/28 26/58/29 25/57/28
f 55/59/30 27/60/31 26/58/29
f 27/60/31 57/61/32 28/62/33
f 28/62/33 58/63/34 29/64/35
f 29/64/35 30/65/1 1/66/3
f 59/67/36 31/68/2 30/1/1
f 60/69/2 32/7/2 31/68/2
f 61/70/2 33/71/37 32/7/2
f 33/72/37 63/73/5 34/11/5
f 34/11/5 64/74/5 35/13/5
f 35/13/5 65/75/38 36/15/6
f 65/76/38 37/20/9 36/17/6
f 66/77/39 38/78/11 37/20/9
f 67/79/40 39/80/41 38/22/11
f 39/80/41 69/81/42 40/25/13
f 40/25/13 70/82/15 41/27/15
f 41/27/15 71/83/43 42/29/17
f 42/29/17 72/84/44 43/31/19
f 43/31/19 73/85/20 44/33/20
f 44/33/20 74/86/20 45/35/20
f 45/35/20 75/87/45 46/37/21
f 75/88/45 47/42/23 46/39/21
f 76/89/23 48/90/23 47/42/23
f 77/91/23 49/92/25 48/90/23
f 78/93/46 50/50/26 49/47/25
f 79/94/26 51/52/26 50/50/26
f 80/95/26 52/54/26 51/52/26
f 81/96/26 53/97/47 52/54/26
f 53/97/47 83/98/28 54/56/28
f 83/98/28 55/59/30 54/56/28
f 84/99/48 56/100/49 55/59/30
f 56/100/49 86/101/50 57/61/32
f 57/61/32 87/102/51 58/63/34
f 58/63/34 59/103/36 30/65/1
f 30/1/1 31/68/2 2/2/2
f 31/4/2 32/104/2 3/5/2
f 32/7/2 33/71/37 4/8/4
f 4/10/4 33/72/37 34/11/5
f 5/12/5 34/11/5 35/13/5
f 6/14/5 35/13/5 36/15/6
f 36/17/6 37/20/9 8/18/8
f 37/20/9 38/78/11 9/21/10
f 38/22/11 39/80/41 10/23/12
f 10/23/12 39/80/41 40/25/13
f 11/26/14 40/25/13 41/27/15
f 12/28/16 41/27/15 42/29/17
f 13/30/18 42/29/17 43/31/19
f 14/32/19 43/31/19 44/33/20
f 15/34/20 44/33/20 45/35/20
f 16/36/20 45/35/20 46/37/21
f 46/39/21 47/42/23 18/40/23
f 47/42/23 48/90/23 19/43/23
f 48/44/23 49/105/25 20/45/24
f 49/47/25 50/50/26 21/48/26
f 50/50/26 51/52/26 22/51/26
f 51/52/26 52/54/26 23/53/26
f 52/54/26 53/97/47 24/55/27
f 24/55/27 53/97/47 54/56/28
f 54/56/28 55/59/30 26/58/29
f 55/59/30 56/100/49 27/60/31
f 27/60/31 56/100/49 57/61/32
f 28/62/33 57/61/32 58/63/34
f 29/64/35 58/63/34 30/65/1
f 59/67/36 60/69/2 31/68/2
f 60/69/2 61/70/2 32/7/2
f 61/70/2 62/106/52 33/71/37
f 33/72/37 62/106/52 63/73/5
f 34/11/5 63/73/5 64/74/5
f 35/13/5 64/74/5 65/75/38
f 65/76/38 66/77/39 37/20/9
f 66/77/39 67/107/40 38/78/11
f 67/79/40 68/108/53 39/80/41
f 39/80/41 68/108/53 69/81/42
f 40/25/13 69/81/42 70/82/15
f 41/27/15 70/82/15 71/83/43
f 42/29/17 71/83/43 72/84/44
f 43/31/19 72/84/44 73/85/20
f 44/33/20 73/85/20 74/86/20
f 45/35/20 74/86/20 75/87/45
f 75/88/45 76/89/23 47/42/23
f 76/89/23 77/91/23 48/90/23
f 77/91/23 78/109/46 49/92/25
f 78/93/46 79/94/26 50/50/26
f 79/94/26 80/95/26 51/52/26
f 80/95/26 81/96/26 52/54/26
f 81/96/26 82/110/54 53/97/47
f 53/97/47 82/110/54 83/98/28
f 83/98/28 84/99/48 55/59/30
f 84/99/48 85/111/55 56/100/49
f 56/100/49 85/111/55 86/101/50
f 57/61/32 86/101/50 87/102/51
f 58/63/34 87/102/51 59/103/36
