# Blender 4.4.0
# www.blender.org
mtllib loftNurbs.mtl
o loftNurbs_1
v -21.171761 -0.000001 -5.226251
v -21.152285 -0.000001 -4.017990
v -21.114182 -0.000001 -1.654002
v -21.086775 -0.000001 0.046297
v -21.095867 0.172891 0.036892
v -21.122561 0.680546 0.009276
v -21.148762 1.178825 -0.017830
v -21.144836 1.180669 -0.106778
v -21.126801 1.317062 -0.573634
v -21.113295 1.886002 -1.135890
v -21.127153 3.136273 -1.473936
v -21.183134 4.452739 -1.726542
v -21.245680 5.390217 -1.924009
v -21.271109 5.702720 -1.993494
v -21.282183 5.924220 -2.045893
v -21.300579 6.292182 -2.132938
v -21.311796 6.516529 -2.186009
v -21.296553 6.501574 -2.464754
v -21.260414 6.466118 -3.125606
v -21.229982 6.436261 -3.682113
v -21.227219 6.418784 -3.697976
v -21.216860 6.353243 -3.757464
v -21.206997 6.290850 -3.814096
v -21.205027 6.278389 -3.825406
v -21.207546 4.326623 -3.852184
v -21.183567 2.249672 -4.306220
v -21.123255 1.206933 -5.259969
v -21.127356 0.544562 -5.341999
v -21.154945 0.138177 -5.280378
v -10.615751 -0.000001 -5.226250
v -10.596276 -0.000001 -4.017989
v -10.558173 -0.000001 -1.654000
v -10.530768 -0.000001 0.046299
v -10.539860 0.172891 0.036894
v -10.566554 0.680547 0.009278
v -10.592755 1.178826 -0.017828
v -10.588829 1.180670 -0.106777
v -10.570794 1.317063 -0.573632
v -10.557288 1.886003 -1.135889
v -10.571147 3.136273 -1.473935
v -10.627130 4.452739 -1.726540
v -10.689674 5.390218 -1.924008
v -10.715102 5.702720 -1.993493
v -10.726176 5.924221 -2.045892
v -10.744574 6.292183 -2.132937
v -10.755790 6.516530 -2.186008
v -10.740546 6.501575 -2.464752
v -10.704408 6.466119 -3.125605
v -10.673975 6.436262 -3.682112
v -10.671213 6.418785 -3.697975
v -10.660854 6.353244 -3.757463
v -10.650990 6.290851 -3.814095
v -10.649022 6.278389 -3.825404
v -10.651541 4.326623 -3.852183
v -10.627559 2.249673 -4.306218
v -10.567247 1.206933 -5.259968
v -10.571350 0.544562 -5.341997
v -10.598940 0.138177 -5.280377
v -0.059745 -0.000000 -5.226248
v -0.040270 -0.000000 -4.017987
v -0.002167 -0.000000 -1.653999
v 0.025238 0.000000 0.046300
v 0.016147 0.172892 0.036895
v -0.010547 0.680547 0.009279
v -0.036748 1.178826 -0.017827
v -0.032822 1.180670 -0.106775
v -0.014787 1.317063 -0.573631
v -0.001283 1.886003 -1.135887
v -0.015140 3.136274 -1.473933
v -0.071122 4.452740 -1.726539
v -0.133667 5.390219 -1.924006
v -0.159095 5.702721 -1.993492
v -0.170169 5.924222 -2.045891
v -0.188566 6.292184 -2.132936
v -0.199783 6.516530 -2.186007
v -0.184540 6.501575 -2.464751
v -0.148401 6.466120 -3.125603
v -0.117969 6.436263 -3.682111
v -0.115206 6.418786 -3.697973
v -0.104846 6.353244 -3.757462
v -0.094984 6.290851 -3.814094
v -0.093014 6.278390 -3.825403
v -0.095534 4.326624 -3.852181
v -0.071552 2.249673 -4.306217
v -0.011240 1.206934 -5.259966
v -0.015343 0.544563 -5.341996
v -0.042934 0.138178 -5.280375
vn -0.0000 -0.8261 -0.5636
vn -0.7069 -0.7073 0.0010
vn -0.6333 -0.6278 -0.4526
vn -0.0000 -1.0000 -0.0000
vn -0.0000 1.0000 -0.0000
vn -0.5560 -0.5796 0.5958
vn -0.0000 0.0543 0.9985
vn -0.9180 0.3938 0.0477
vn -0.7079 0.0127 0.7062
vn -0.0000 0.7189 0.6951
vn -0.6132 0.5654 0.5516
vn -0.7588 0.6474 0.0711
vn -0.0000 0.9884 0.1519
vn -0.7665 0.5513 0.3296
vn -0.0000 0.8589 0.5122
vn -0.7615 0.3230 0.5619
vn -0.0000 0.2249 0.9744
vn -0.7022 0.1496 0.6961
vn -0.0000 0.1973 0.9803
vn -0.3183 0.1704 0.9325
vn -0.0000 0.2116 0.9774
vn -0.7253 0.1063 0.6802
vn -0.0000 0.2236 0.9747
vn -0.9762 -0.0138 0.2163
vn -0.0000 0.2302 0.9731
vn -0.7328 0.1136 0.6709
vn -0.7294 0.1227 0.6730
vn -0.0000 0.8006 0.5992
vn -0.6249 0.6225 0.4712
vn -0.7071 0.7061 -0.0379
vn -0.0000 0.9986 -0.0536
vn -0.7440 0.6638 -0.0763
vn -0.6676 0.6644 -0.3360
vn -0.0000 0.9032 -0.4293
vn 0.1180 0.8198 -0.5603
vn -0.0000 0.6721 -0.7405
vn -0.7006 0.4374 -0.5637
vn -0.6542 0.4490 -0.6086
vn -0.5695 0.2861 -0.7706
vn -0.0000 0.1142 -0.9935
vn -0.9326 0.0917 -0.3490
vn -0.7739 0.2831 -0.5664
vn -0.0000 0.4600 -0.8879
vn -0.6133 0.3248 -0.7200
vn -0.0000 -0.0136 -0.9999
vn -0.6632 0.0021 -0.7484
vn -0.0000 -0.2589 -0.9659
vn -0.6872 -0.1317 -0.7144
vn 0.5361 -0.7075 -0.4605
vn 0.6606 -0.7506 -0.0106
vn 0.7081 -0.7061 -0.0080
vn -0.0000 -0.6876 0.7261
vn 0.7069 0.0658 0.7042
vn 0.7615 0.0692 0.6444
vn 0.5480 0.6024 0.5803
vn 0.7100 0.6904 0.1390
vn 0.7185 0.5790 0.3854
vn -0.0000 0.4984 0.8669
vn 0.7267 0.1664 0.6665
vn 0.9447 0.1131 0.3079
vn 0.9425 0.1354 0.3055
vn 0.6336 0.2037 0.7464
vn 0.6800 0.2029 0.7046
vn 0.6833 0.2003 0.7022
vn 0.5470 0.6700 0.5019
vn 0.6838 0.7296 -0.0009
vn 0.6660 0.7460 -0.0036
vn 0.5755 0.7547 -0.3151
vn 0.7085 0.5141 -0.4835
vn 0.7474 0.5074 -0.4289
vn -0.0000 0.3666 -0.9304
vn 0.7205 0.0849 -0.6882
vn 0.7616 0.3069 -0.5707
vn -0.0000 0.4187 -0.9081
vn 0.7528 -0.0342 -0.6573
vn 0.6849 -0.2188 -0.6951
vn 0.5896 -0.5515 0.5901
vn 0.7926 0.3076 0.5265
vn 0.6910 0.2941 -0.6604
vn 0.6815 0.3126 -0.6617
vt 0.497835 0.213836
vt 0.475229 0.016710
vt 0.497835 0.016345
vt 0.478159 0.216154
vt 0.433932 0.019376
vt 0.478159 0.018663
vt 0.431002 0.214913
vt 0.399191 0.017935
vt 0.431002 0.017423
vt 0.004210 0.412917
vt 0.201530 0.417538
vt 0.004040 0.417538
vt 0.201031 0.431106
vt 0.003540 0.431106
vt 0.200541 0.444423
vt 0.003050 0.444423
vt 0.400391 0.785734
vt 0.402055 0.983151
vt 0.400391 0.983224
vt 0.402055 0.785660
vt 0.410789 0.982814
vt 0.200952 0.448118
vt 0.003714 0.463324
vt 0.003461 0.448118
vt 0.200945 0.496740
vt 0.003454 0.496740
vt 0.199898 0.531925
vt 0.002407 0.531925
vt 0.198728 0.556981
vt 0.001237 0.556981
vt 0.198252 0.565333
vt 0.000761 0.565333
vt 0.198045 0.571253
vt 0.000554 0.571253
vt 0.197701 0.581087
vt 0.000210 0.581087
vt 0.197491 0.587083
vt 0.000000 0.587083
vt 0.440955 0.788784
vt 0.446170 0.985989
vt 0.440955 0.986275
vt 0.446170 0.788499
vt 0.458534 0.985313
vt 0.458534 0.791729
vt 0.468945 0.988650
vt 0.458534 0.989220
vt 0.700170 0.584938
vt 0.897609 0.584471
vt 0.897661 0.584938
vt 0.700118 0.584471
vt 0.897415 0.582719
vt 0.699924 0.582719
vt 0.897231 0.581052
vt 0.699740 0.581052
vt 0.897194 0.580719
vt 0.699750 0.528554
vt 0.897241 0.528554
vt 0.896792 0.473043
vt 0.699301 0.473043
vt 0.895664 0.445174
vt 0.698250 0.427471
vt 0.895741 0.427471
vt 0.698766 0.416610
vt 0.896257 0.416610
vt 0.699081 0.412917
vt 0.896571 0.412917
vt 0.497835 0.411327
vt 0.475229 0.214200
vt 0.475229 0.411691
vt 0.431002 0.412404
vt 0.399191 0.215426
vt 0.201701 0.412917
vt 0.399021 0.417538
vt 0.398522 0.431106
vt 0.398032 0.444423
vt 0.400391 0.588243
vt 0.402055 0.588170
vt 0.410789 0.785323
vt 0.398442 0.448118
vt 0.201204 0.463324
vt 0.398436 0.496740
vt 0.397388 0.531925
vt 0.396218 0.556981
vt 0.395743 0.565333
vt 0.395535 0.571253
vt 0.395191 0.581087
vt 0.394981 0.587083
vt 0.440955 0.591293
vt 0.446170 0.591008
vt 0.458534 0.787823
vt 0.458534 0.590332
vt 0.468945 0.787253
vt 0.502679 0.584938
vt 0.502628 0.584471
vt 0.502434 0.582719
vt 0.502249 0.581052
vt 0.699703 0.580719
vt 0.502259 0.528554
vt 0.501811 0.473043
vt 0.698173 0.445174
vt 0.500759 0.427471
vt 0.501275 0.416610
vt 0.501590 0.412917
vt 0.433932 0.216866
vt 0.468945 0.791160
vt 0.399191 0.412917
vt 0.410789 0.587832
vt 0.398695 0.463324
vt 0.468945 0.589763
vt 0.502212 0.580719
vt 0.500682 0.445174
s 1
usemtl マテリアル.002
f 30/1/1 2/2/2 1/3/3
f 31/4/4 3/5/5 2/6/2
f 32/7/4 4/8/6 3/9/5
f 4/10/6 34/11/7 5/12/8
f 5/12/8 35/13/7 6/14/9
f 6/14/9 36/15/10 7/16/11
f 36/17/10 8/18/12 7/19/11
f 37/20/13 9/21/14 8/18/12
f 38/22/15 10/23/16 9/24/14
f 10/23/16 40/25/17 11/26/18
f 11/26/18 41/27/19 12/28/20
f 12/28/20 42/29/21 13/30/22
f 13/30/22 43/31/23 14/32/24
f 14/32/24 44/33/25 15/34/26
f 15/34/26 45/35/25 16/36/27
f 16/36/27 46/37/28 17/38/29
f 46/39/28 18/40/30 17/41/29
f 47/42/31 19/43/32 18/40/30
f 48/44/31 20/45/33 19/46/32
f 49/47/34 21/48/35 20/49/33
f 50/50/36 22/51/37 21/48/35
f 51/52/36 23/53/38 22/51/37
f 52/54/36 24/55/39 23/53/38
f 24/55/39 54/56/40 25/57/41
f 54/56/40 26/58/42 25/57/41
f 55/59/43 27/60/44 26/58/42
f 27/60/44 57/61/45 28/62/46
f 28/62/46 58/63/47 29/64/48
f 29/64/48 30/65/1 1/66/3
f 59/67/49 31/68/4 30/1/1
f 60/69/50 32/7/4 31/68/4
f 61/70/51 33/71/52 32/7/4
f 33/72/52 63/73/53 34/11/7
f 34/11/7 64/74/54 35/13/7
f 35/13/7 65/75/55 36/15/10
f 65/76/55 37/20/13 36/17/10
f 66/77/56 38/78/15 37/20/13
f 67/79/57 39/80/58 38/22/15
f 39/80/58 69/81/59 40/25/17
f 40/25/17 70/82/60 41/27/19
f 41/27/19 71/83/61 42/29/21
f 42/29/21 72/84/62 43/31/23
f 43/31/23 73/85/63 44/33/25
f 44/33/25 74/86/64 45/35/25
f 45/35/25 75/87/65 46/37/28
f 75/88/65 47/42/31 46/39/28
f 76/89/66 48/90/31 47/42/31
f 77/91/67 49/92/34 48/90/31
f 78/93/68 50/50/36 49/47/34
f 79/94/69 51/52/36 50/50/36
f 80/95/70 52/54/36 51/52/36
f 81/96/70 53/97/71 52/54/36
f 53/97/71 83/98/72 54/56/40
f 83/98/72 55/59/43 54/56/40
f 84/99/73 56/100/74 55/59/43
f 56/100/74 86/101/75 57/61/45
f 57/61/45 87/102/76 58/63/47
f 58/63/47 59/103/49 30/65/1
f 30/1/1 31/68/4 2/2/2
f 31/4/4 32/104/4 3/5/5
f 32/7/4 33/71/52 4/8/6
f 4/10/6 33/72/52 34/11/7
f 5/12/8 34/11/7 35/13/7
f 6/14/9 35/13/7 36/15/10
f 36/17/10 37/20/13 8/18/12
f 37/20/13 38/78/15 9/21/14
f 38/22/15 39/80/58 10/23/16
f 10/23/16 39/80/58 40/25/17
f 11/26/18 40/25/17 41/27/19
f 12/28/20 41/27/19 42/29/21
f 13/30/22 42/29/21 43/31/23
f 14/32/24 43/31/23 44/33/25
f 15/34/26 44/33/25 45/35/25
f 16/36/27 45/35/25 46/37/28
f 46/39/28 47/42/31 18/40/30
f 47/42/31 48/90/31 19/43/32
f 48/44/31 49/105/34 20/45/33
f 49/47/34 50/50/36 21/48/35
f 50/50/36 51/52/36 22/51/37
f 51/52/36 52/54/36 23/53/38
f 52/54/36 53/97/71 24/55/39
f 24/55/39 53/97/71 54/56/40
f 54/56/40 55/59/43 26/58/42
f 55/59/43 56/100/74 27/60/44
f 27/60/44 56/100/74 57/61/45
f 28/62/46 57/61/45 58/63/47
f 29/64/48 58/63/47 30/65/1
f 59/67/49 60/69/50 31/68/4
f 60/69/50 61/70/51 32/7/4
f 61/70/51 62/106/77 33/71/52
f 33/72/52 62/106/77 63/73/53
f 34/11/7 63/73/53 64/74/54
f 35/13/7 64/74/54 65/75/55
f 65/76/55 66/77/56 37/20/13
f 66/77/56 67/107/57 38/78/15
f 67/79/57 68/108/78 39/80/58
f 39/80/58 68/108/78 69/81/59
f 40/25/17 69/81/59 70/82/60
f 41/27/19 70/82/60 71/83/61
f 42/29/21 71/83/61 72/84/62
f 43/31/23 72/84/62 73/85/63
f 44/33/25 73/85/63 74/86/64
f 45/35/25 74/86/64 75/87/65
f 75/88/65 76/89/66 47/42/31
f 76/89/66 77/91/67 48/90/31
f 77/91/67 78/109/68 49/92/34
f 78/93/68 79/94/69 50/50/36
f 79/94/69 80/95/70 51/52/36
f 80/95/70 81/96/70 52/54/36
f 81/96/70 82/110/79 53/97/71
f 53/97/71 82/110/79 83/98/72
f 83/98/72 84/99/73 55/59/43
f 84/99/73 85/111/80 56/100/74
f 56/100/74 85/111/80 86/101/75
f 57/61/45 86/101/75 87/102/76
f 58/63/47 87/102/76 59/103/49
f 13/30/22 15/34/26 22/51/37
f 76/89/66 73/85/63 69/81/59
f 29/64/48 1/66/3 2/6/2
f 2/6/2 3/9/5 4/10/6
f 4/10/6 5/12/8 6/14/9
f 6/14/9 7/19/11 8/18/12
f 6/14/9 8/18/12 9/24/14
f 2/6/2 4/10/6 6/14/9
f 28/62/46 29/64/48 2/6/2
f 26/58/42 27/60/44 28/62/46
f 23/53/38 24/55/39 25/57/41
f 26/58/42 28/62/46 2/6/2
f 22/51/37 23/53/38 25/57/41
f 25/57/41 26/58/42 2/6/2
f 2/6/2 6/14/9 9/24/14
f 2/6/2 9/24/14 10/23/16
f 22/51/37 25/57/41 2/6/2
f 20/49/33 21/48/35 22/51/37
f 17/41/29 18/40/30 19/46/32
f 19/46/32 20/49/33 22/51/37
f 22/51/37 2/6/2 10/23/16
f 11/26/18 12/28/20 13/30/22
f 22/51/37 10/23/16 11/26/18
f 17/41/29 19/46/32 22/51/37
f 16/36/27 17/41/29 22/51/37
f 22/51/37 11/26/18 13/30/22
f 13/30/22 14/32/24 15/34/26
f 15/34/26 16/36/27 22/51/37
f 60/69/50 59/103/49 87/102/76
f 87/102/76 86/101/75 85/111/80
f 87/102/76 85/111/80 84/99/73
f 61/70/51 60/69/50 87/102/76
f 63/73/53 62/106/77 61/70/51
f 65/76/55 64/74/54 63/73/53
f 66/77/56 65/76/55 63/73/53
f 63/73/53 61/70/51 87/102/76
f 63/73/53 87/102/76 84/99/73
f 67/79/57 66/77/56 63/73/53
f 68/108/78 67/79/57 63/73/53
f 63/73/53 84/99/73 83/98/72
f 83/98/72 82/110/79 81/96/70
f 83/98/72 81/96/70 80/95/70
f 68/108/78 63/73/53 83/98/72
f 71/83/61 70/82/60 69/81/59
f 69/81/59 68/108/78 83/98/72
f 83/98/72 80/95/70 79/94/69
f 79/94/69 78/93/68 77/91/67
f 76/89/66 75/88/65 74/86/64
f 79/94/69 77/91/67 76/89/66
f 69/81/59 83/98/72 79/94/69
f 72/84/62 71/83/61 69/81/59
f 76/89/66 74/86/64 73/85/63
f 73/85/63 72/84/62 69/81/59
f 69/81/59 79/94/69 76/89/66
