# Blender 4.4.0
# www.blender.org
mtllib platformField.mtl
o Platform_4x4_Empty_Cube.013
v -1.902745 -0.120266 1.918292
v -1.931593 0.103987 1.947140
v -1.902745 -0.120266 -1.918292
v -1.931593 0.103988 -1.947140
v 1.902747 -0.120266 1.918292
v 1.931595 0.103987 1.947140
v 1.902747 -0.120266 -1.918291
v 1.931595 0.103988 -1.947140
v -1.931593 0.033214 1.947140
v -1.931593 0.033214 -1.947140
v 1.931595 0.033214 -1.947140
v 1.931595 0.033214 1.947140
v -1.837062 0.103987 1.852610
v -1.837062 0.103988 -1.852609
v 1.837064 0.103988 -1.852609
v 1.837064 0.103987 1.852610
v -1.817648 0.081734 1.833196
v -1.817648 0.081734 -1.833195
v 1.817650 0.081734 -1.833195
v 1.817650 0.081734 1.833196
v -1.902745 0.012625 -1.918292
v 1.902747 0.012625 -1.918291
v 1.902747 0.012625 1.918292
v -1.902745 0.012625 1.918292
v -1.902744 -0.044928 -1.918292
v -1.902744 -0.062713 -1.918292
v 1.902747 -0.044928 -1.918291
v 1.902747 -0.062713 -1.918291
v 1.902747 -0.044928 1.918292
v 1.902747 -0.062713 1.918292
v -1.902744 -0.062713 1.918292
v -1.902744 -0.044928 1.918292
v -1.888466 -0.045050 -1.904012
v -1.888466 -0.062591 -1.904012
v 1.888468 -0.045050 -1.904012
v 1.888468 -0.062591 -1.904012
v 1.888468 -0.045050 1.904013
v 1.888468 -0.062591 1.904013
v -1.888465 -0.062591 1.904013
v -1.888465 -0.045050 1.904013
vn -0.0000 -1.0000 -0.0000
vn 0.5809 -0.8140 -0.0000
vn -0.0000 -0.8140 0.5809
vn -0.5809 -0.8140 -0.0000
vn -0.0000 -0.8140 -0.5809
vn -0.0000 1.0000 -0.0000
vn 0.0043 -1.0000 -0.0043
vn 0.0043 -1.0000 0.0043
vn 1.0000 -0.0000 -0.0000
vn -0.0000 -0.0000 1.0000
vn -0.0043 -1.0000 -0.0043
vn -0.0043 -1.0000 0.0043
vn -1.0000 -0.0000 -0.0000
vn -0.0000 -0.0000 -1.0000
vn 0.0043 1.0000 0.0043
vn -0.0043 1.0000 0.0043
vn -0.0043 1.0000 -0.0043
vn 0.0043 1.0000 -0.0043
vn -0.0000 0.6574 -0.7535
vn -0.7536 0.6574 -0.0000
vn -0.7535 0.6574 -0.0000
vn 0.7535 0.6574 -0.0000
vn 0.7536 0.6574 -0.0000
vn -0.0000 0.6574 0.7536
vn -0.0000 0.6574 0.7535
vt 0.000000 0.000000
vt 0.496405 0.307686
vt 0.165603 0.281473
vt 0.482286 0.281473
vt 0.532599 0.307686
vt 0.835163 0.281473
vt 0.518481 0.281473
vt 0.521299 0.281473
vt 0.849534 0.307686
vt 0.835415 0.281473
vt 0.496657 0.307686
vt 0.168422 0.281473
vt 0.482538 0.281473
vt 0.179722 0.307686
vt 0.849282 0.307686
vt 0.535418 0.307686
vt 0.182541 0.307686
s 1
usemtl Grey.019
f 7/1/1 1/1/1 3/1/1
f 11/1/2 23/1/2 22/1/2
f 12/1/3 24/1/3 23/1/3
f 9/1/4 21/1/4 24/1/4
f 21/1/5 11/1/5 22/1/5
f 18/1/6 20/1/6 19/1/6
f 27/1/7 37/1/8 35/1/7
f 28/1/9 5/1/9 7/1/9
f 5/1/10 31/1/10 1/1/10
f 25/1/11 35/1/7 33/1/11
f 32/1/12 33/1/11 40/1/12
f 31/1/13 3/1/13 1/1/13
f 26/1/14 7/1/14 3/1/14
f 30/1/15 39/1/16 31/1/16
f 35/1/9 38/1/9 36/1/9
f 37/1/10 39/1/10 38/1/10
f 40/1/13 34/1/13 39/1/13
f 33/1/14 36/1/14 34/1/14
f 31/1/16 34/1/17 26/1/17
f 32/1/12 37/1/8 29/1/8
f 28/1/18 38/1/15 30/1/15
f 26/1/17 36/1/18 28/1/18
f 7/1/1 5/1/1 1/1/1
f 11/1/2 12/1/2 23/1/2
f 12/1/3 9/1/3 24/1/3
f 9/1/4 10/1/4 21/1/4
f 21/1/5 10/1/5 11/1/5
f 18/1/6 17/1/6 20/1/6
f 27/1/7 29/1/8 37/1/8
f 28/1/9 30/1/9 5/1/9
f 5/1/10 30/1/10 31/1/10
f 25/1/11 27/1/7 35/1/7
f 32/1/12 25/1/11 33/1/11
f 31/1/13 26/1/13 3/1/13
f 26/1/14 28/1/14 7/1/14
f 30/1/15 38/1/15 39/1/16
f 35/1/9 37/1/9 38/1/9
f 37/1/10 40/1/10 39/1/10
f 40/1/13 33/1/13 34/1/13
f 33/1/14 35/1/14 36/1/14
f 31/1/16 39/1/16 34/1/17
f 32/1/12 40/1/12 37/1/8
f 28/1/18 36/1/18 38/1/15
f 26/1/17 34/1/17 36/1/18
usemtl LightGrey.015
f 2/1/13 10/1/13 9/1/13
f 8/1/9 12/1/9 11/1/9
f 4/1/14 11/1/14 10/1/14
f 6/1/10 9/1/10 12/1/10
f 6/1/6 15/1/6 16/1/6
f 2/1/6 14/1/6 4/1/6
f 13/1/19 20/1/19 17/1/19
f 6/1/6 13/1/6 2/1/6
f 8/1/6 14/1/6 15/1/6
f 15/1/20 20/1/21 16/1/21
f 13/1/22 18/1/23 14/1/23
f 14/1/24 19/1/25 15/1/25
f 2/1/13 4/1/13 10/1/13
f 8/1/9 6/1/9 12/1/9
f 4/1/14 8/1/14 11/1/14
f 6/1/10 2/1/10 9/1/10
f 6/1/6 8/1/6 15/1/6
f 2/1/6 13/1/6 14/1/6
f 13/1/19 16/1/19 20/1/19
f 6/1/6 16/1/6 13/1/6
f 8/1/6 4/1/6 14/1/6
f 15/1/20 19/1/20 20/1/21
f 13/1/22 17/1/22 18/1/23
f 14/1/24 18/1/24 19/1/25
usemtl Texture_Signs.008
f 24/2/13 25/3/13 32/4/13
f 22/5/9 29/6/9 27/7/9
f 25/8/14 22/9/14 27/10/14
f 23/11/10 32/12/10 29/13/10
f 24/2/13 21/14/13 25/3/13
f 22/5/9 23/15/9 29/6/9
f 25/8/14 21/16/14 22/9/14
f 23/11/10 24/17/10 32/12/10
