# Blender 4.4.0
# www.blender.org
mtllib platformField.mtl
o Platform_4x4_Empty_Cube.013
v 1.902745 -0.120266 -1.918292
v 1.931593 0.103987 -1.947140
v 1.902745 -0.120266 1.918292
v 1.931593 0.103988 1.947140
v -1.902747 -0.120266 -1.918292
v -1.931595 0.103987 -1.947140
v -1.902747 -0.120266 1.918291
v -1.931595 0.103988 1.947140
v 1.931593 0.033214 -1.947140
v 1.931593 0.033214 1.947140
v -1.931595 0.033214 1.947140
v -1.931595 0.033214 -1.947140
v 1.837062 0.103987 -1.852610
v 1.837062 0.103988 1.852609
v -1.837064 0.103988 1.852609
v -1.837064 0.103987 -1.852610
v 1.817648 0.081734 -1.833196
v 1.817648 0.081734 1.833195
v -1.817650 0.081734 1.833195
v -1.817650 0.081734 -1.833196
v 1.902745 0.012625 1.918292
v -1.902747 0.012625 1.918291
v -1.902747 0.012625 -1.918292
v 1.902745 0.012625 -1.918292
v 1.902744 -0.044928 1.918292
v 1.902744 -0.062713 1.918292
v -1.902747 -0.044928 1.918291
v -1.902747 -0.062713 1.918291
v -1.902747 -0.044928 -1.918292
v -1.902747 -0.062713 -1.918292
v 1.902744 -0.062713 -1.918292
v 1.902744 -0.044928 -1.918292
v 1.888466 -0.045050 1.904012
v 1.888466 -0.062591 1.904012
v -1.888468 -0.045050 1.904012
v -1.888468 -0.062591 1.904012
v -1.888468 -0.045050 -1.904013
v -1.888468 -0.062591 -1.904013
v 1.888465 -0.062591 -1.904013
v 1.888465 -0.045050 -1.904013
v 1.902745 -0.120266 1.918292
v -1.902747 -0.120266 1.918291
v 1.902745 -0.120266 -1.918292
v -1.902747 -0.120266 -1.918292
v 1.902745 -1.221692 1.918292
v -1.902747 -1.221692 1.918291
v 1.902745 -1.221692 -1.918292
v -1.902747 -1.221692 -1.918292
vn -0.0000 1.0000 -0.0000
vn -0.5809 -0.8140 -0.0000
vn -0.0000 -0.8140 -0.5809
vn 0.5809 -0.8140 -0.0000
vn -0.0000 -0.8140 0.5809
vn -0.0043 -1.0000 0.0043
vn -0.0043 -1.0000 -0.0043
vn -1.0000 -0.0000 -0.0000
vn -0.0000 -0.0000 -1.0000
vn 0.0043 -1.0000 0.0043
vn 0.0043 -1.0000 -0.0043
vn 1.0000 -0.0000 -0.0000
vn -0.0000 -0.0000 1.0000
vn -0.0043 1.0000 -0.0043
vn 0.0043 1.0000 -0.0043
vn 0.0043 1.0000 0.0043
vn -0.0043 1.0000 0.0043
vn -0.0000 0.6574 0.7535
vn 0.7536 0.6574 -0.0000
vn 0.7535 0.6574 -0.0000
vn -0.7535 0.6574 -0.0000
vn -0.7536 0.6574 -0.0000
vn -0.0000 0.6574 -0.7536
vn -0.0000 0.6574 -0.7535
vn 0.7071 -0.0000 0.7071
vn 0.7071 -0.0000 -0.7071
vn -0.7071 -0.0000 -0.7071
vn -0.0000 -1.0000 -0.0000
vn -0.7071 -0.0000 0.7071
vt 0.000000 0.000000
vt 0.496405 0.307686
vt 0.165603 0.281473
vt 0.482286 0.281473
vt 0.532599 0.307686
vt 0.835163 0.281473
vt 0.518481 0.281473
vt 0.521299 0.281473
vt 0.849534 0.307686
vt 0.835415 0.281473
vt 0.496657 0.307686
vt 0.168422 0.281473
vt 0.482538 0.281473
vt 0.179722 0.307686
vt 0.849282 0.307686
vt 0.535418 0.307686
vt 0.182541 0.307686
s 1
usemtl Grey.019
f 3/1/1 42/1/1 41/1/1
f 11/1/2 23/1/2 22/1/2
f 12/1/3 24/1/3 23/1/3
f 9/1/4 21/1/4 24/1/4
f 21/1/5 11/1/5 22/1/5
f 18/1/1 20/1/1 19/1/1
f 27/1/6 37/1/7 35/1/6
f 28/1/8 5/1/8 7/1/8
f 5/1/9 31/1/9 1/1/9
f 25/1/10 35/1/6 33/1/10
f 32/1/11 33/1/10 40/1/11
f 31/1/12 3/1/12 1/1/12
f 26/1/13 7/1/13 3/1/13
f 30/1/14 39/1/15 31/1/15
f 35/1/8 38/1/8 36/1/8
f 37/1/9 39/1/9 38/1/9
f 40/1/12 34/1/12 39/1/12
f 33/1/13 36/1/13 34/1/13
f 31/1/15 34/1/16 26/1/16
f 32/1/11 37/1/7 29/1/7
f 28/1/17 38/1/14 30/1/14
f 26/1/16 36/1/17 28/1/17
f 1/1/1 41/1/1 43/1/1
f 11/1/2 12/1/2 23/1/2
f 12/1/3 9/1/3 24/1/3
f 9/1/4 10/1/4 21/1/4
f 21/1/5 10/1/5 11/1/5
f 18/1/1 17/1/1 20/1/1
f 27/1/6 29/1/7 37/1/7
f 28/1/8 30/1/8 5/1/8
f 5/1/9 30/1/9 31/1/9
f 25/1/10 27/1/6 35/1/6
f 32/1/11 25/1/10 33/1/10
f 31/1/12 26/1/12 3/1/12
f 26/1/13 28/1/13 7/1/13
f 30/1/14 38/1/14 39/1/15
f 35/1/8 37/1/8 38/1/8
f 37/1/9 40/1/9 39/1/9
f 40/1/12 33/1/12 34/1/12
f 33/1/13 35/1/13 36/1/13
f 31/1/15 39/1/15 34/1/16
f 32/1/11 40/1/11 37/1/7
f 28/1/17 36/1/17 38/1/14
f 26/1/16 34/1/16 36/1/17
f 41/1/25 47/1/26 43/1/26
f 43/1/26 48/1/27 44/1/27
f 7/1/1 44/1/1 42/1/1
f 5/1/1 43/1/1 44/1/1
f 46/1/28 47/1/28 45/1/28
f 46/1/28 48/1/28 47/1/28
f 42/1/29 45/1/25 41/1/25
f 44/1/27 46/1/29 42/1/29
f 3/1/1 7/1/1 42/1/1
f 1/1/1 3/1/1 41/1/1
f 41/1/25 45/1/25 47/1/26
f 43/1/26 47/1/26 48/1/27
f 7/1/1 5/1/1 44/1/1
f 5/1/1 1/1/1 43/1/1
f 42/1/29 46/1/29 45/1/25
f 44/1/27 48/1/27 46/1/29
usemtl LightGrey.015
f 2/1/12 10/1/12 9/1/12
f 8/1/8 12/1/8 11/1/8
f 4/1/13 11/1/13 10/1/13
f 6/1/9 9/1/9 12/1/9
f 6/1/1 15/1/1 16/1/1
f 2/1/1 14/1/1 4/1/1
f 13/1/18 20/1/18 17/1/18
f 6/1/1 13/1/1 2/1/1
f 8/1/1 14/1/1 15/1/1
f 15/1/19 20/1/20 16/1/20
f 13/1/21 18/1/22 14/1/22
f 14/1/23 19/1/24 15/1/24
f 2/1/12 4/1/12 10/1/12
f 8/1/8 6/1/8 12/1/8
f 4/1/13 8/1/13 11/1/13
f 6/1/9 2/1/9 9/1/9
f 6/1/1 8/1/1 15/1/1
f 2/1/1 13/1/1 14/1/1
f 13/1/18 16/1/18 20/1/18
f 6/1/1 16/1/1 13/1/1
f 8/1/1 4/1/1 14/1/1
f 15/1/19 19/1/19 20/1/20
f 13/1/21 17/1/21 18/1/22
f 14/1/23 18/1/23 19/1/24
usemtl Texture_Signs.008
f 24/2/12 25/3/12 32/4/12
f 22/5/8 29/6/8 27/7/8
f 25/8/13 22/9/13 27/10/13
f 23/11/9 32/12/9 29/13/9
f 24/2/12 21/14/12 25/3/12
f 22/5/8 23/15/8 29/6/8
f 25/8/13 21/16/13 22/9/13
f 23/11/9 24/17/9 32/12/9
