# Blender 4.4.0
# www.blender.org
mtllib railLong.mtl
o Rail_Long_Cube.034
v 1.078857 0.169119 0.000116
v 1.135498 0.192939 0.000116
v 1.111546 0.180474 0.030242
v 1.111546 0.180474 -0.030010
v 1.116522 0.117758 -0.029792
v 1.116522 0.117758 0.030023
v 1.146327 0.118887 0.000116
v 1.086717 0.116629 0.000116
v 1.088247 0.195471 -0.029918
v 1.097638 0.221822 0.000116
v 1.088247 0.195471 0.030149
v 1.087594 0.168009 0.000116
v 1.095290 0.215234 0.022140
v 1.095290 0.215235 -0.021908
v 1.081205 0.175707 -0.022910
v 1.081205 0.175707 0.023142
v 0.994992 0.225723 0.000116
v 0.989641 0.167533 0.000116
v 0.992317 0.196629 -0.029714
v 0.992317 0.196629 0.029946
v 1.120520 0.211980 0.000116
v 1.093581 0.171125 0.023352
v 1.103058 0.190939 -0.030090
v 1.129509 0.189823 0.022069
v 1.103057 0.190939 0.030321
v 1.129509 0.189823 -0.021837
v 1.085594 0.169898 0.000116
v 1.093581 0.171125 -0.023121
v 1.115453 0.158079 0.030085
v 1.087189 0.153552 0.000116
v 1.115453 0.158079 -0.029853
v 1.143717 0.162606 0.000116
v 1.138876 0.118605 -0.022134
v 1.094168 0.116912 0.022727
v 1.094168 0.116912 -0.022495
v 1.138876 0.118605 0.022366
v 1.086209 -0.008277 0.000116
v 1.146132 -0.008277 0.000116
v 1.116171 -0.008277 0.030009
v 1.116171 -0.008277 -0.029777
v 0.990310 0.174807 0.022663
v 0.994324 0.218450 0.022314
v 0.990310 0.174807 -0.022431
v 0.994324 0.218450 -0.022082
v 1.116154 0.206719 -0.021791
v 1.089960 0.175158 -0.023286
v 1.116154 0.206719 0.022023
v 1.089960 0.175158 0.023517
v 1.094255 0.154684 0.022979
v 1.136651 0.161475 0.022206
v 1.094255 0.154684 -0.022747
v 1.136651 0.161475 -0.021975
v 1.138642 -0.008277 -0.022304
v 1.093700 -0.008277 -0.022304
v 1.093700 -0.008277 0.022536
v 1.138642 -0.008277 0.022536
v 1.104111 0.129830 0.000049
v 1.104111 0.104609 0.000049
v 1.104111 0.117115 -0.004108
v 1.104111 0.117114 0.004340
v 1.104111 0.105572 0.002515
v 1.104111 0.128835 0.002203
v 1.104111 0.105598 -0.002316
v 1.104111 0.128806 -0.002007
v 0.000000 0.228236 -0.000393
v 0.000000 0.168421 -0.000393
v -0.000000 0.198329 0.029412
v 0.000000 0.198329 -0.030198
v -0.000000 0.220579 0.021961
v 0.000000 0.175718 -0.022747
v 0.000000 0.220940 -0.022747
v -0.000000 0.176079 0.021961
v -1.078857 0.169119 0.000116
v -1.135498 0.192939 0.000116
v -1.111546 0.180474 0.030242
v -1.111546 0.180474 -0.030011
v -1.116522 0.117758 -0.029792
v -1.116522 0.117758 0.030023
v -1.146327 0.118887 0.000116
v -1.086717 0.116629 0.000116
v -1.088247 0.195471 -0.029918
v -1.097638 0.221822 0.000116
v -1.088247 0.195471 0.030149
v -1.087594 0.168009 0.000116
v -1.095290 0.215234 0.022140
v -1.095290 0.215235 -0.021908
v -1.081205 0.175707 -0.022910
v -1.081205 0.175707 0.023142
v -0.994992 0.225723 0.000116
v -0.989641 0.167533 0.000116
v -0.992317 0.196629 -0.029714
v -0.992317 0.196629 0.029946
v -1.120520 0.211980 0.000116
v -1.093581 0.171125 0.023352
v -1.103058 0.190939 -0.030090
v -1.129509 0.189823 0.022068
v -1.103057 0.190939 0.030321
v -1.129509 0.189823 -0.021837
v -1.085594 0.169898 0.000116
v -1.093581 0.171125 -0.023121
v -1.115453 0.158079 0.030085
v -1.087189 0.153552 0.000116
v -1.115453 0.158079 -0.029853
v -1.143717 0.162606 0.000116
v -1.138876 0.118605 -0.022134
v -1.094168 0.116912 0.022727
v -1.094168 0.116912 -0.022495
v -1.138876 0.118605 0.022366
v -1.086209 -0.008277 0.000116
v -1.146132 -0.008277 0.000116
v -1.116171 -0.008277 0.030009
v -1.116171 -0.008277 -0.029777
v -0.990310 0.174807 0.022663
v -0.994324 0.218450 0.022314
v -0.990310 0.174807 -0.022432
v -0.994324 0.218450 -0.022082
v -1.116154 0.206719 -0.021791
v -1.089960 0.175158 -0.023286
v -1.116154 0.206719 0.022023
v -1.089960 0.175158 0.023517
v -1.094255 0.154684 0.022979
v -1.136651 0.161475 0.022206
v -1.094255 0.154684 -0.022747
v -1.136651 0.161475 -0.021975
v -1.138642 -0.008277 -0.022304
v -1.093700 -0.008277 -0.022304
v -1.093700 -0.008277 0.022536
v -1.138642 -0.008277 0.022536
v 0.000000 0.132340 -0.000711
v 0.000000 0.105496 -0.000707
v -0.000000 0.118893 0.003810
v 0.000000 0.118894 -0.004592
v -0.000000 0.131271 0.001483
v 0.000000 0.106316 -0.002400
v 0.000000 0.131504 -0.002419
v -0.000000 0.106548 0.001465
v -1.104111 0.129830 0.000049
v -1.104111 0.104609 0.000049
v -1.104111 0.117115 -0.004108
v -1.104111 0.117114 0.004339
v -1.104111 0.105572 0.002515
v -1.104111 0.128835 0.002203
v -1.104111 0.105598 -0.002316
v -1.104111 0.128806 -0.002008
vn -0.0000 -0.7079 -0.7063
vn 0.0081 -1.0000 0.0001
vn -0.0000 -1.0000 0.0072
vn -0.3089 -0.9511 -0.0000
vn -0.0259 -0.7298 0.6832
vn 0.0587 -0.9983 -0.0000
vn 0.0032 -0.7128 0.7014
vn 0.0037 -0.7128 -0.7013
vn -0.0260 -0.7298 -0.6831
vn 0.9876 0.1569 -0.0000
vn 0.6794 0.3401 -0.6502
vn 0.8930 0.4500 -0.0000
vn 0.4622 0.6083 -0.6453
vn 0.6106 0.7919 -0.0000
vn 0.4622 0.6083 0.6453
vn 0.6794 0.3401 0.6502
vn 0.0714 0.0316 0.9969
vn 0.7274 0.1088 0.6776
vn 0.0496 0.0714 0.9962
vn -0.6041 -0.2680 0.7505
vn 0.0261 0.0031 0.9997
vn 0.0261 0.0031 -0.9997
vn -0.6041 -0.2680 -0.7505
vn 0.0714 0.0316 -0.9969
vn 0.0496 0.0715 -0.9962
vn 0.7274 0.1088 -0.6776
vn -0.0002 -0.0006 -1.0000
vn -0.7077 0.0017 -0.7065
vn 0.0094 0.0003 -1.0000
vn -0.7169 -0.0175 -0.6969
vn 0.7141 0.0172 -0.6998
vn 0.7065 -0.0012 -0.7077
vn 0.0094 0.0003 1.0000
vn 0.7065 -0.0012 0.7077
vn 0.7141 0.0172 0.6998
vn -0.7169 -0.0175 0.6969
vn -0.7077 0.0017 0.7065
vn -0.0002 -0.0006 1.0000
vn 1.0000 -0.0014 -0.0000
vn 0.9996 0.0269 -0.0000
vn -1.0000 0.0080 -0.0000
vn -0.7075 0.0020 0.7067
vn -0.9999 0.0160 -0.0000
vn -0.7075 0.0020 -0.7067
vn -1.0000 0.0041 -0.0000
vn 0.0008 0.0486 -0.9988
vn -0.2910 -0.5823 -0.7591
vn 0.0002 0.0075 -1.0000
vn 0.0106 0.7168 -0.6971
vn 0.1556 0.7368 -0.6580
vn 0.2202 0.9754 -0.0000
vn 0.0181 0.9998 0.0001
vn 0.1556 0.7367 0.6580
vn 0.0008 0.0486 0.9988
vn 0.0103 0.7168 0.6972
vn -0.0003 0.0076 1.0000
vn -0.2910 -0.5823 0.7591
vn -0.9224 -0.3862 -0.0000
vn -0.0000 -0.7047 0.7095
vn -0.0000 0.0003 -1.0000
vn -0.0000 0.0004 1.0000
vn -0.0000 1.0000 0.0070
vn -0.0000 0.7085 -0.7057
vn -0.0000 0.7051 0.7091
vn -0.0003 -0.6168 -0.7871
vn -0.0000 -1.0000 -0.0002
vn -0.0000 -0.6019 -0.7985
vn -0.0009 -0.9999 -0.0117
vn -0.0000 -0.6081 0.7939
vn 0.0004 0.0115 -0.9999
vn -0.0000 -0.0007 -1.0000
vn -0.0006 0.0115 0.9999
vn -0.0000 -0.0008 1.0000
vn 0.0023 0.9999 -0.0145
vn -0.0000 0.6001 -0.7999
vn -0.0000 1.0000 -0.0011
vn 0.0017 0.5994 -0.8005
vn 0.0009 0.6120 0.7909
vn -0.0000 0.6070 0.7947
vn -0.0081 -1.0000 0.0001
vn -0.0037 -0.7128 -0.7013
vn 0.0259 -0.7298 0.6832
vn 0.3089 -0.9511 -0.0000
vn -0.0587 -0.9983 -0.0000
vn -0.0032 -0.7128 0.7014
vn 0.0260 -0.7298 -0.6831
vn -0.6794 0.3401 -0.6502
vn -0.9876 0.1569 -0.0000
vn -0.8930 0.4500 -0.0000
vn -0.4622 0.6083 -0.6453
vn -0.4622 0.6083 0.6453
vn -0.6106 0.7919 -0.0000
vn -0.6794 0.3401 0.6502
vn -0.0714 0.0316 0.9969
vn -0.7274 0.1088 0.6776
vn -0.0261 0.0031 0.9997
vn -0.0496 0.0714 0.9962
vn 0.6041 -0.2680 0.7505
vn 0.6041 -0.2680 -0.7505
vn -0.0261 0.0031 -0.9997
vn -0.0714 0.0316 -0.9969
vn -0.0496 0.0715 -0.9962
vn -0.7274 0.1088 -0.6776
vn 0.7077 0.0017 -0.7065
vn 0.0002 -0.0006 -1.0000
vn -0.0094 0.0003 -1.0000
vn 0.7169 -0.0175 -0.6969
vn -0.7141 0.0172 -0.6998
vn -0.7065 -0.0012 -0.7077
vn -0.0094 0.0003 1.0000
vn -0.7065 -0.0012 0.7077
vn 0.0002 -0.0006 1.0000
vn -0.7141 0.0172 0.6998
vn 0.7169 -0.0175 0.6969
vn 0.7077 0.0017 0.7065
vn -1.0000 -0.0014 -0.0000
vn -0.9996 0.0269 -0.0000
vn 1.0000 0.0080 -0.0000
vn 0.7075 0.0020 0.7067
vn 1.0000 0.0041 -0.0000
vn 0.9999 0.0160 -0.0000
vn 0.7075 0.0020 -0.7067
vn -0.0008 0.0486 -0.9988
vn 0.2910 -0.5823 -0.7591
vn -0.0002 0.0075 -1.0000
vn -0.0106 0.7168 -0.6971
vn -0.1556 0.7368 -0.6580
vn -0.2202 0.9754 -0.0000
vn -0.0181 0.9998 0.0001
vn -0.1556 0.7367 0.6580
vn -0.0008 0.0486 0.9988
vn -0.0103 0.7168 0.6972
vn 0.0003 0.0076 1.0000
vn 0.2910 -0.5823 0.7591
vn 0.9224 -0.3862 -0.0000
vn 0.0003 -0.6168 -0.7871
vn 0.0009 -0.9999 -0.0117
vn -0.0004 0.0114 -0.9999
vn 0.0006 0.0115 0.9999
vn 0.0013 -0.6270 0.7791
vn -0.0023 0.9999 -0.0144
vn -0.0017 0.5994 -0.8004
vn -0.0009 0.6120 0.7909
vn -0.0013 -0.6270 0.7790
vt 0.000000 0.000000
s 1
usemtl Black.009
f 70/1/1 18/1/2 66/1/3
f 27/1/4 16/1/5 1/1/6
f 1/1/6 41/1/7 18/1/2
f 1/1/6 43/1/8 15/1/9
f 15/1/9 27/1/4 1/1/6
f 32/1/10 26/1/11 2/1/12
f 2/1/12 45/1/13 21/1/14
f 2/1/12 47/1/15 24/1/16
f 24/1/16 32/1/10 2/1/12
f 3/1/17 50/1/18 24/1/16
f 24/1/16 25/1/19 3/1/17
f 25/1/19 22/1/20 3/1/17
f 22/1/20 29/1/21 3/1/17
f 31/1/22 28/1/23 4/1/24
f 28/1/23 23/1/25 4/1/24
f 23/1/25 26/1/11 4/1/24
f 4/1/24 52/1/26 31/1/22
f 40/1/27 35/1/28 5/1/29
f 5/1/29 51/1/30 31/1/22
f 31/1/22 33/1/31 5/1/29
f 5/1/29 53/1/32 40/1/27
f 6/1/33 56/1/34 36/1/35
f 36/1/35 29/1/21 6/1/33
f 6/1/33 49/1/36 34/1/37
f 34/1/37 39/1/38 6/1/33
f 38/1/39 33/1/31 7/1/40
f 7/1/40 52/1/26 32/1/10
f 7/1/40 50/1/18 36/1/35
f 36/1/35 38/1/39 7/1/40
f 8/1/41 55/1/42 34/1/37
f 34/1/37 30/1/43 8/1/41
f 30/1/43 35/1/28 8/1/41
f 8/1/41 54/1/44 37/1/45
f 9/1/46 46/1/47 15/1/9
f 15/1/9 19/1/48 9/1/46
f 9/1/46 44/1/49 14/1/50
f 14/1/50 23/1/25 9/1/46
f 10/1/51 45/1/13 14/1/50
f 14/1/50 17/1/52 10/1/51
f 17/1/52 13/1/53 10/1/51
f 10/1/51 47/1/15 21/1/14
f 25/1/19 13/1/53 11/1/54
f 11/1/54 42/1/55 20/1/56
f 20/1/56 16/1/5 11/1/54
f 11/1/54 48/1/57 25/1/19
f 12/1/58 49/1/36 22/1/20
f 12/1/58 48/1/57 27/1/4
f 12/1/58 46/1/47 28/1/23
f 12/1/58 51/1/30 30/1/43
f 18/1/2 72/1/59 66/1/3
f 68/1/60 43/1/8 70/1/1
f 41/1/7 67/1/61 72/1/59
f 65/1/62 44/1/49 71/1/63
f 71/1/63 19/1/48 68/1/60
f 20/1/56 69/1/64 67/1/61
f 42/1/55 65/1/62 69/1/64
f 63/1/65 130/1/66 134/1/67
f 58/1/68 136/1/69 130/1/66
f 59/1/70 134/1/67 132/1/71
f 136/1/69 60/1/72 131/1/73
f 57/1/74 135/1/75 129/1/76
f 64/1/77 132/1/71 135/1/75
f 131/1/73 62/1/78 133/1/79
f 133/1/79 57/1/74 129/1/76
f 70/1/1 90/1/80 115/1/81
f 88/1/82 99/1/83 73/1/84
f 73/1/84 113/1/85 88/1/82
f 73/1/84 115/1/81 90/1/80
f 99/1/83 87/1/86 73/1/84
f 98/1/87 104/1/88 74/1/89
f 74/1/89 117/1/90 98/1/87
f 74/1/89 119/1/91 93/1/92
f 104/1/88 96/1/93 74/1/89
f 75/1/94 122/1/95 101/1/96
f 97/1/97 96/1/93 75/1/94
f 94/1/98 97/1/97 75/1/94
f 101/1/96 94/1/98 75/1/94
f 100/1/99 103/1/100 76/1/101
f 95/1/102 100/1/99 76/1/101
f 98/1/87 95/1/102 76/1/101
f 76/1/101 124/1/103 98/1/87
f 107/1/104 112/1/105 77/1/106
f 77/1/106 123/1/107 107/1/104
f 105/1/108 103/1/100 77/1/106
f 77/1/106 125/1/109 105/1/108
f 78/1/110 128/1/111 111/1/112
f 101/1/96 108/1/113 78/1/110
f 78/1/110 121/1/114 101/1/96
f 111/1/112 106/1/115 78/1/110
f 105/1/108 110/1/116 79/1/117
f 79/1/117 124/1/103 105/1/108
f 79/1/117 122/1/95 104/1/88
f 110/1/116 108/1/113 79/1/117
f 80/1/118 127/1/119 109/1/120
f 102/1/121 106/1/115 80/1/118
f 107/1/104 102/1/121 80/1/118
f 80/1/118 126/1/122 107/1/104
f 81/1/123 118/1/124 95/1/102
f 91/1/125 87/1/86 81/1/123
f 81/1/123 116/1/126 91/1/125
f 95/1/102 86/1/127 81/1/123
f 82/1/128 117/1/90 93/1/92
f 89/1/129 86/1/127 82/1/128
f 85/1/130 89/1/129 82/1/128
f 82/1/128 119/1/91 85/1/130
f 85/1/130 97/1/97 83/1/131
f 83/1/131 114/1/132 85/1/130
f 88/1/82 92/1/133 83/1/131
f 83/1/131 120/1/134 88/1/82
f 84/1/135 121/1/114 102/1/121
f 84/1/135 120/1/134 94/1/98
f 84/1/135 118/1/124 99/1/83
f 84/1/135 123/1/107 100/1/99
f 72/1/59 90/1/80 66/1/3
f 68/1/60 115/1/81 91/1/125
f 67/1/61 113/1/85 72/1/59
f 65/1/62 116/1/126 89/1/129
f 71/1/63 91/1/125 116/1/126
f 69/1/64 92/1/133 67/1/61
f 65/1/62 114/1/132 69/1/64
f 130/1/66 143/1/136 134/1/67
f 136/1/69 138/1/137 130/1/66
f 134/1/67 139/1/138 132/1/71
f 136/1/69 140/1/139 141/1/140
f 135/1/75 137/1/141 129/1/76
f 132/1/71 144/1/142 135/1/75
f 131/1/73 142/1/143 140/1/139
f 133/1/79 137/1/141 142/1/143
f 70/1/1 43/1/8 18/1/2
f 27/1/4 48/1/57 16/1/5
f 1/1/6 16/1/5 41/1/7
f 1/1/6 18/1/2 43/1/8
f 15/1/9 46/1/47 27/1/4
f 32/1/10 52/1/26 26/1/11
f 2/1/12 26/1/11 45/1/13
f 2/1/12 21/1/14 47/1/15
f 24/1/16 50/1/18 32/1/10
f 3/1/17 29/1/21 50/1/18
f 24/1/16 47/1/15 25/1/19
f 25/1/19 48/1/57 22/1/20
f 22/1/20 49/1/36 29/1/21
f 31/1/22 51/1/30 28/1/23
f 28/1/23 46/1/47 23/1/25
f 23/1/25 45/1/13 26/1/11
f 4/1/24 26/1/11 52/1/26
f 40/1/27 54/1/44 35/1/28
f 5/1/29 35/1/28 51/1/30
f 31/1/22 52/1/26 33/1/31
f 5/1/29 33/1/31 53/1/32
f 6/1/33 39/1/38 56/1/34
f 36/1/35 50/1/18 29/1/21
f 6/1/33 29/1/21 49/1/36
f 34/1/37 55/1/42 39/1/38
f 38/1/39 53/1/32 33/1/31
f 7/1/40 33/1/31 52/1/26
f 7/1/40 32/1/10 50/1/18
f 36/1/35 56/1/34 38/1/39
f 8/1/41 37/1/45 55/1/42
f 34/1/37 49/1/36 30/1/43
f 30/1/43 51/1/30 35/1/28
f 8/1/41 35/1/28 54/1/44
f 9/1/46 23/1/25 46/1/47
f 15/1/9 43/1/8 19/1/48
f 9/1/46 19/1/48 44/1/49
f 14/1/50 45/1/13 23/1/25
f 10/1/51 21/1/14 45/1/13
f 14/1/50 44/1/49 17/1/52
f 17/1/52 42/1/55 13/1/53
f 10/1/51 13/1/53 47/1/15
f 25/1/19 47/1/15 13/1/53
f 11/1/54 13/1/53 42/1/55
f 20/1/56 41/1/7 16/1/5
f 11/1/54 16/1/5 48/1/57
f 12/1/58 30/1/43 49/1/36
f 12/1/58 22/1/20 48/1/57
f 12/1/58 27/1/4 46/1/47
f 12/1/58 28/1/23 51/1/30
f 18/1/2 41/1/7 72/1/59
f 68/1/60 19/1/48 43/1/8
f 41/1/7 20/1/56 67/1/61
f 65/1/62 17/1/52 44/1/49
f 71/1/63 44/1/49 19/1/48
f 20/1/56 42/1/55 69/1/64
f 42/1/55 17/1/52 65/1/62
f 63/1/65 58/1/68 130/1/66
f 58/1/68 61/1/144 136/1/69
f 59/1/70 63/1/65 134/1/67
f 136/1/69 61/1/144 60/1/72
f 57/1/74 64/1/77 135/1/75
f 64/1/77 59/1/70 132/1/71
f 131/1/73 60/1/72 62/1/78
f 133/1/79 62/1/78 57/1/74
f 70/1/1 66/1/3 90/1/80
f 88/1/82 120/1/134 99/1/83
f 73/1/84 90/1/80 113/1/85
f 73/1/84 87/1/86 115/1/81
f 99/1/83 118/1/124 87/1/86
f 98/1/87 124/1/103 104/1/88
f 74/1/89 93/1/92 117/1/90
f 74/1/89 96/1/93 119/1/91
f 104/1/88 122/1/95 96/1/93
f 75/1/94 96/1/93 122/1/95
f 97/1/97 119/1/91 96/1/93
f 94/1/98 120/1/134 97/1/97
f 101/1/96 121/1/114 94/1/98
f 100/1/99 123/1/107 103/1/100
f 95/1/102 118/1/124 100/1/99
f 98/1/87 117/1/90 95/1/102
f 76/1/101 103/1/100 124/1/103
f 107/1/104 126/1/122 112/1/105
f 77/1/106 103/1/100 123/1/107
f 105/1/108 124/1/103 103/1/100
f 77/1/106 112/1/105 125/1/109
f 78/1/110 108/1/113 128/1/111
f 101/1/96 122/1/95 108/1/113
f 78/1/110 106/1/115 121/1/114
f 111/1/112 127/1/119 106/1/115
f 105/1/108 125/1/109 110/1/116
f 79/1/117 104/1/88 124/1/103
f 79/1/117 108/1/113 122/1/95
f 110/1/116 128/1/111 108/1/113
f 80/1/118 106/1/115 127/1/119
f 102/1/121 121/1/114 106/1/115
f 107/1/104 123/1/107 102/1/121
f 80/1/118 109/1/120 126/1/122
f 81/1/123 87/1/86 118/1/124
f 91/1/125 115/1/81 87/1/86
f 81/1/123 86/1/127 116/1/126
f 95/1/102 117/1/90 86/1/127
f 82/1/128 86/1/127 117/1/90
f 89/1/129 116/1/126 86/1/127
f 85/1/130 114/1/132 89/1/129
f 82/1/128 93/1/92 119/1/91
f 85/1/130 119/1/91 97/1/97
f 83/1/131 92/1/133 114/1/132
f 88/1/82 113/1/85 92/1/133
f 83/1/131 97/1/97 120/1/134
f 84/1/135 94/1/98 121/1/114
f 84/1/135 99/1/83 120/1/134
f 84/1/135 100/1/99 118/1/124
f 84/1/135 102/1/121 123/1/107
f 72/1/59 113/1/85 90/1/80
f 68/1/60 70/1/1 115/1/81
f 67/1/61 92/1/133 113/1/85
f 65/1/62 71/1/63 116/1/126
f 71/1/63 68/1/60 91/1/125
f 69/1/64 114/1/132 92/1/133
f 65/1/62 89/1/129 114/1/132
f 130/1/66 138/1/137 143/1/136
f 136/1/69 141/1/140 138/1/137
f 134/1/67 143/1/136 139/1/138
f 136/1/69 131/1/73 140/1/139
f 135/1/75 144/1/142 137/1/141
f 132/1/71 139/1/138 144/1/142
f 131/1/73 133/1/79 142/1/143
f 133/1/79 129/1/76 137/1/141
