# Blender 4.4.0
# www.blender.org
mtllib signCorner.mtl
o signCorner_0
v -1.016742 -0.320107 0.038523
v 0.030539 0.320107 -1.602169
v -1.016742 0.320107 0.038523
v 0.030539 -0.320107 -1.602169
v 0.030539 -0.320107 -0.245476
v -0.253460 -0.320107 0.038523
v 0.008921 -0.320107 -0.136794
v -0.052642 -0.320107 -0.044658
v -0.144778 -0.320107 0.016905
v -0.253460 0.320107 0.038523
v 0.030539 0.320107 -0.245476
v -0.144778 0.320107 0.016905
v -0.052642 0.320107 -0.044658
v 0.008921 0.320107 -0.136794
v -1.018983 -0.305717 -0.021917
v -0.052884 0.305717 -1.602808
v -1.018983 0.305717 -0.021917
v -0.052884 -0.305717 -1.602808
v -0.052884 -0.305717 -0.293149
v -0.324116 -0.305717 -0.021917
v -0.073530 -0.305717 -0.189353
v -0.132326 -0.305717 -0.101359
v -0.220320 -0.305717 -0.042563
v -0.324116 0.305717 -0.021917
v -0.052884 0.305717 -0.293149
v -0.220320 0.305717 -0.042563
v -0.132326 0.305717 -0.101359
v -0.073530 0.305717 -0.189353
v -1.052690 -0.363452 0.029844
v 0.023699 0.363452 -1.639351
v -1.052690 0.363452 0.029844
v 0.023699 -0.363452 -1.639351
v 0.021630 -0.363452 -0.246568
v -0.255054 -0.363452 0.027330
v 0.001357 -0.363452 -0.140089
v -0.058569 -0.363452 -0.050384
v -0.148753 -0.363452 0.008590
v -0.255054 0.363452 0.027330
v 0.021630 0.363452 -0.246568
v -0.148753 0.363452 0.008590
v -0.058569 0.363452 -0.050384
v 0.001357 0.363452 -0.140089
v -1.061791 -0.363452 -0.028768
v -0.058925 0.363452 -1.644507
v -1.061791 0.363452 -0.028768
v -0.058925 -0.363452 -1.644507
v -0.062046 -0.363452 -0.293788
v -0.324693 -0.363452 -0.034244
v -0.081294 -0.363452 -0.192332
v -0.138046 -0.363452 -0.107373
v -0.223406 -0.363452 -0.051978
v -0.324693 0.363452 -0.034244
v -0.062046 0.363452 -0.293788
v -0.223406 0.363452 -0.051978
v -0.138046 0.363452 -0.107373
v -0.081294 0.363452 -0.192331
v -1.015019 -0.311540 0.005789
v 0.004231 0.311539 -1.590989
v -1.015019 0.311539 0.005790
v 0.004231 -0.311540 -1.590989
v 0.004231 -0.311540 -0.270608
v -0.272166 -0.311540 0.005789
v -0.016808 -0.311540 -0.164835
v -0.076724 -0.311540 -0.075166
v -0.166393 -0.311540 -0.015250
v -0.272166 0.311539 0.005790
v 0.004231 0.311539 -0.270608
v -0.166393 0.311539 -0.015250
v -0.076724 0.311539 -0.075165
v -0.016808 0.311539 -0.164835
vn 0.0980 -0.0000 0.9952
vn -0.0000 -0.0000 1.0000
vn 0.9952 -0.0000 0.0980
vn 0.9239 -0.0000 0.3827
vn 0.7071 -0.0000 0.7071
vn 0.3827 -0.0000 0.9239
vn 1.0000 -0.0000 -0.0000
vn 0.1022 0.9890 0.1074
vn 0.0710 0.9864 0.1485
vn 0.1059 0.9891 0.1022
vn 0.0710 -0.9864 0.1485
vn 0.1022 -0.9890 0.1074
vn 0.1059 -0.9891 0.1022
vn 0.9993 -0.0000 -0.0371
vn 0.0551 0.9842 0.1681
vn 0.0285 0.9794 0.1999
vn -0.0077 -0.0000 1.0000
vn 0.0285 -0.9794 0.1999
vn 0.0551 -0.9842 0.1681
vn 0.1591 0.9871 0.0195
vn 0.1387 0.9889 0.0532
vn 0.1351 0.9891 0.0589
vn 0.1636 -0.9865 0.0114
vn 0.1700 -0.9854 -0.0000
vn 0.1591 -0.9871 0.0195
vn 0.1387 -0.9889 0.0532
vn 0.1351 -0.9891 0.0589
vn 0.1700 0.9854 -0.0000
vn 0.1636 0.9865 0.0114
vn 0.0103 0.9754 0.2202
vn -0.0000 0.9728 0.2316
vn -0.0000 -0.9728 0.2316
vn 0.0103 -0.9754 0.2202
vn -0.0000 -1.0000 -0.0000
vn -0.0000 1.0000 -0.0000
vn -0.9882 -0.0000 0.1534
vn 0.0623 -0.0000 -0.9981
vn -0.1219 0.0974 0.9878
vn -0.1034 -0.1121 0.9883
vn -0.1219 -0.0974 0.9878
vn 0.9927 -0.0769 -0.0933
vn 0.9929 0.0867 -0.0816
vn 0.9927 0.0769 -0.0933
vn 0.9753 -0.2003 0.0933
vn 0.9077 -0.1894 0.3744
vn 0.9750 -0.2022 0.0917
vn 0.9753 0.2003 0.0933
vn 0.9077 0.1894 0.3744
vn 0.9075 0.1869 0.3763
vn 0.9075 -0.1869 0.3763
vn 0.6932 -0.1897 0.6954
vn 0.6932 0.1897 0.6954
vn 0.6949 0.1868 0.6944
vn 0.3725 -0.2047 0.9052
vn 0.6949 -0.1868 0.6944
vn 0.3725 0.2047 0.9052
vn 0.3656 0.2140 0.9058
vn 0.0878 -0.2458 0.9653
vn 0.3656 -0.2140 0.9058
vn 0.0878 0.2458 0.9653
vn 0.0837 0.2511 0.9643
vn 0.9750 0.2022 0.0917
vn 0.9929 -0.0866 -0.0816
vn 0.0837 -0.2511 0.9643
vn -0.1034 0.1121 0.9883
vn 0.0810 0.0597 -0.9949
vn 0.0603 -0.0734 -0.9955
vn 0.0810 -0.0597 -0.9949
vn -0.9959 0.0500 0.0758
vn -0.9964 -0.0637 0.0561
vn -0.9964 0.0637 0.0561
vn -0.9835 0.1545 -0.0937
vn -0.9145 0.1450 -0.3778
vn -0.9146 0.1425 -0.3784
vn -0.9835 -0.1545 -0.0937
vn -0.9145 -0.1450 -0.3778
vn -0.9833 -0.1563 -0.0927
vn -0.6962 0.1462 -0.7028
vn -0.6955 0.1423 -0.7043
vn -0.6962 -0.1462 -0.7028
vn -0.9146 -0.1425 -0.3784
vn -0.3663 0.1649 -0.9158
vn -0.3685 0.1754 -0.9129
vn -0.3663 -0.1649 -0.9158
vn -0.6955 -0.1423 -0.7043
vn -0.0932 0.2001 -0.9753
vn -0.0952 0.2088 -0.9733
vn -0.3685 -0.1754 -0.9129
vn -0.0932 -0.2001 -0.9753
vn -0.9959 -0.0500 0.0758
vn -0.9833 0.1563 -0.0927
vn 0.0603 0.0734 -0.9955
vn -0.0952 -0.2088 -0.9733
vt 0.422972 0.616585
vt 0.280257 0.736288
vt 0.280258 0.616585
vt 0.505847 0.616585
vt 0.485128 0.736288
vt 0.485128 0.616585
vt 0.464409 0.616585
vt 0.464409 0.736288
vt 0.443690 0.616585
vt 0.443690 0.736288
vt 0.759513 0.736288
vt 0.505847 0.736288
vt 0.000000 0.000000
vt 0.422972 0.736288
vt 0.759513 0.616585
s 1
usemtl Texture_Signs.006
f 62/1/1 59/2/2 57/3/2
f 61/4/3 70/5/4 63/6/4
f 70/5/4 64/7/5 63/6/4
f 69/8/5 65/9/6 64/7/5
f 68/10/6 62/1/1 65/9/6
f 61/4/3 58/11/7 67/12/3
f 62/1/1 66/14/1 59/2/2
f 61/4/3 67/12/3 70/5/4
f 70/5/4 69/8/5 64/7/5
f 69/8/5 68/10/6 65/9/6
f 68/10/6 66/14/1 62/1/1
f 61/4/3 60/15/7 58/11/7
usemtl DarkGrey.008
f 22/13/8 9/13/9 8/13/10
f 12/13/11 27/13/12 13/13/13
f 15/13/14 3/13/14 1/13/14
f 23/13/15 6/13/16 9/13/9
f 16/13/17 4/13/17 2/13/17
f 10/13/18 26/13/19 12/13/11
f 5/13/20 21/13/21 7/13/22
f 25/13/23 2/13/24 11/13/25
f 28/13/26 11/13/25 14/13/27
f 4/13/28 19/13/29 5/13/20
f 7/13/22 22/13/8 8/13/10
f 20/13/30 1/13/31 6/13/16
f 27/13/12 14/13/27 13/13/13
f 3/13/32 24/13/33 10/13/18
f 37/13/34 50/13/34 36/13/34
f 40/13/35 55/13/35 54/13/35
f 31/13/36 43/13/36 29/13/36
f 34/13/34 51/13/34 37/13/34
f 32/13/37 44/13/37 30/13/37
f 38/13/35 54/13/35 52/13/35
f 33/13/34 49/13/34 47/13/34
f 30/13/35 53/13/35 39/13/35
f 39/13/35 56/13/35 42/13/35
f 32/13/34 47/13/34 46/13/34
f 35/13/34 50/13/34 49/13/34
f 29/13/34 48/13/34 34/13/34
f 42/13/35 55/13/35 41/13/35
f 31/13/35 52/13/35 45/13/35
f 3/13/38 29/13/39 1/13/40
f 4/13/41 30/13/42 2/13/43
f 5/13/44 35/13/45 33/13/46
f 11/13/47 42/13/48 14/13/49
f 7/13/50 36/13/51 35/13/45
f 14/13/49 41/13/52 13/13/53
f 9/13/54 36/13/51 8/13/55
f 12/13/56 41/13/52 40/13/57
f 6/13/58 37/13/59 9/13/54
f 10/13/60 40/13/57 38/13/61
f 2/13/43 39/13/62 11/13/47
f 4/13/41 33/13/46 32/13/63
f 1/13/40 34/13/64 6/13/58
f 3/13/38 38/13/61 31/13/65
f 15/13/66 45/13/67 17/13/68
f 18/13/69 44/13/70 46/13/71
f 19/13/72 49/13/73 21/13/74
f 25/13/75 56/13/76 53/13/77
f 22/13/78 49/13/73 50/13/79
f 27/13/80 56/13/76 28/13/81
f 22/13/78 51/13/82 23/13/83
f 27/13/80 54/13/84 55/13/85
f 23/13/83 48/13/86 20/13/87
f 26/13/88 52/13/89 54/13/84
f 16/13/90 53/13/77 44/13/70
f 18/13/69 47/13/91 19/13/72
f 15/13/66 48/13/86 43/13/92
f 17/13/68 52/13/89 24/13/93
f 22/13/8 23/13/15 9/13/9
f 12/13/11 26/13/19 27/13/12
f 15/13/14 17/13/14 3/13/14
f 23/13/15 20/13/30 6/13/16
f 16/13/17 18/13/17 4/13/17
f 10/13/18 24/13/33 26/13/19
f 5/13/20 19/13/29 21/13/21
f 25/13/23 16/13/24 2/13/24
f 28/13/26 25/13/23 11/13/25
f 4/13/28 18/13/28 19/13/29
f 7/13/22 21/13/21 22/13/8
f 20/13/30 15/13/31 1/13/31
f 27/13/12 28/13/26 14/13/27
f 3/13/32 17/13/32 24/13/33
f 37/13/34 51/13/34 50/13/34
f 40/13/35 41/13/35 55/13/35
f 31/13/36 45/13/36 43/13/36
f 34/13/34 48/13/34 51/13/34
f 32/13/37 46/13/37 44/13/37
f 38/13/35 40/13/35 54/13/35
f 33/13/34 35/13/34 49/13/34
f 30/13/35 44/13/35 53/13/35
f 39/13/35 53/13/35 56/13/35
f 32/13/34 33/13/34 47/13/34
f 35/13/34 36/13/34 50/13/34
f 29/13/34 43/13/34 48/13/34
f 42/13/35 56/13/35 55/13/35
f 31/13/35 38/13/35 52/13/35
f 3/13/38 31/13/65 29/13/39
f 4/13/41 32/13/63 30/13/42
f 5/13/44 7/13/50 35/13/45
f 11/13/47 39/13/62 42/13/48
f 7/13/50 8/13/55 36/13/51
f 14/13/49 42/13/48 41/13/52
f 9/13/54 37/13/59 36/13/51
f 12/13/56 13/13/53 41/13/52
f 6/13/58 34/13/64 37/13/59
f 10/13/60 12/13/56 40/13/57
f 2/13/43 30/13/42 39/13/62
f 4/13/41 5/13/44 33/13/46
f 1/13/40 29/13/39 34/13/64
f 3/13/38 10/13/60 38/13/61
f 15/13/66 43/13/92 45/13/67
f 18/13/69 16/13/90 44/13/70
f 19/13/72 47/13/91 49/13/73
f 25/13/75 28/13/81 56/13/76
f 22/13/78 21/13/74 49/13/73
f 27/13/80 55/13/85 56/13/76
f 22/13/78 50/13/79 51/13/82
f 27/13/80 26/13/88 54/13/84
f 23/13/83 51/13/82 48/13/86
f 26/13/88 24/13/93 52/13/89
f 16/13/90 25/13/75 53/13/77
f 18/13/69 46/13/71 47/13/91
f 15/13/66 20/13/87 48/13/86
f 17/13/68 45/13/67 52/13/89
