# Blender 4.4.0
# www.blender.org
mtllib steelbeams.mtl
o steelbeams
v -14.188689 0.841403 0.049570
v 14.188689 0.841403 0.049572
v -14.188689 1.841403 0.049570
v 14.188689 1.841403 0.049572
v -14.188689 1.841403 -0.049572
v 14.188689 1.841403 -0.049570
v -14.188689 0.841403 -0.049572
v 14.188689 0.841403 -0.049570
v -14.188689 1.928132 0.107279
v 14.188689 1.928132 0.107281
v 14.188689 1.928132 -0.107279
v -14.188689 1.928132 -0.107281
v -14.188689 0.754674 -0.107281
v 14.188689 0.754674 -0.107279
v 14.188689 0.754674 0.107281
v -14.188689 0.754674 0.107279
v -14.188689 1.997441 0.446802
v 14.188689 1.997441 0.446804
v 14.188689 1.997441 -0.446802
v -14.188689 1.997441 -0.446804
v -14.188689 0.685365 -0.446804
v 14.188689 0.685365 -0.446802
v 14.188689 0.685365 0.446804
v -14.188689 0.685365 0.446802
v 10.134778 1.997441 -0.446802
v 10.134778 1.928132 -0.107279
v 10.134778 1.841403 -0.049570
v 10.134778 0.841403 -0.049570
v 10.134778 0.754674 -0.107279
v 10.134778 0.685365 -0.446802
v 10.134778 0.685365 0.446804
v 10.134778 0.754674 0.107281
v 10.134778 0.841403 0.049572
v 10.134778 1.841403 0.049572
v 10.134778 1.928132 0.107281
v 10.134778 1.997441 0.446804
v 6.080865 1.997441 -0.446803
v 6.080865 1.928132 -0.107280
v 6.080865 1.841403 -0.049571
v 6.080865 0.841403 -0.049571
v 6.080865 0.754674 -0.107280
v 6.080865 0.685365 -0.446803
v 6.080865 0.685365 0.446803
v 6.080865 0.754674 0.107280
v 6.080865 0.841403 0.049571
v 6.080865 1.841403 0.049571
v 6.080865 1.928132 0.107280
v 6.080865 1.997441 0.446803
v 2.026955 1.997441 -0.446803
v 2.026955 1.928132 -0.107280
v 2.026955 1.841403 -0.049571
v 2.026955 0.841403 -0.049571
v 2.026955 0.754674 -0.107280
v 2.026955 0.685365 -0.446803
v 2.026955 0.685365 0.446803
v 2.026955 0.754674 0.107280
v 2.026955 0.841403 0.049571
v 2.026955 1.841403 0.049571
v 2.026955 1.928132 0.107280
v 2.026955 1.997441 0.446803
v -2.026956 1.997441 -0.446803
v -2.026956 1.928132 -0.107280
v -2.026956 1.841403 -0.049571
v -2.026956 0.841403 -0.049571
v -2.026956 0.754674 -0.107280
v -2.026956 0.685365 -0.446803
v -2.026956 0.685365 0.446803
v -2.026956 0.754674 0.107280
v -2.026956 0.841403 0.049571
v -2.026956 1.841403 0.049571
v -2.026956 1.928132 0.107280
v -2.026956 1.997441 0.446803
v -6.080867 1.997441 -0.446804
v -6.080867 1.928132 -0.107281
v -6.080867 1.841403 -0.049572
v -6.080867 0.841403 -0.049572
v -6.080867 0.754674 -0.107281
v -6.080867 0.685365 -0.446804
v -6.080867 0.685365 0.446802
v -6.080867 0.754674 0.107279
v -6.080867 0.841403 0.049570
v -6.080867 1.841403 0.049570
v -6.080867 1.928132 0.107279
v -6.080867 1.997441 0.446802
v -10.134778 1.997441 -0.446804
v -10.134778 1.928132 -0.107281
v -10.134778 1.841403 -0.049572
v -10.134778 0.841403 -0.049572
v -10.134778 0.754674 -0.107281
v -10.134778 0.685365 -0.446804
v -10.134778 0.685365 0.446802
v -10.134778 0.754674 0.107279
v -10.134778 0.841403 0.049570
v -10.134778 1.841403 0.049570
v -10.134778 1.928132 0.107279
v -10.134778 1.997441 0.446802
v 7.199782 1.712237 -0.049571
v 7.199782 0.970570 -0.049570
v 9.015862 1.712237 -0.049570
v 9.015862 0.970570 -0.049570
v 7.199782 0.970570 0.049572
v 7.199782 1.712237 0.049571
v 9.015862 0.970570 0.049572
v 9.015862 1.712237 0.049572
v -0.908041 1.712237 -0.049571
v -0.908041 0.970570 -0.049571
v 0.908040 1.712237 -0.049571
v 0.908040 0.970570 -0.049571
v -0.908041 0.970570 0.049571
v -0.908041 1.712237 0.049571
v 0.908040 0.970570 0.049571
v 0.908040 1.712237 0.049571
v -9.015862 1.712237 -0.049572
v -9.015862 0.970570 -0.049572
v -7.199783 1.712237 -0.049572
v -7.199783 0.970570 -0.049572
v -9.015862 0.970570 0.049570
v -9.015862 1.712237 0.049570
v -7.199783 0.970570 0.049570
v -7.199783 1.712237 0.049570
vn 0.2025 0.2373 0.9501
vn 0.0001 -0.0476 0.9989
vn -0.0000 0.0449 0.9990
vn -0.0000 1.0000 -0.0000
vn 0.2012 -0.2377 -0.9503
vn -0.0000 0.0476 -0.9989
vn -0.0000 -0.0449 -0.9990
vn -0.0000 -1.0000 -0.0000
vn 1.0000 -0.0000 -0.0000
vn -1.0000 -0.0000 -0.0000
vn 0.0051 -0.0844 0.9964
vn -0.0000 -0.5540 0.8325
vn -0.0000 -0.5540 -0.8325
vn 0.0052 0.0828 -0.9966
vn -0.0000 0.5540 -0.8325
vn -0.0000 0.5540 0.8325
vn -0.0000 -0.9798 0.2000
vn -0.0000 -0.9798 -0.2000
vn -0.0000 0.9798 -0.2000
vn -0.0000 0.9798 0.2000
vn 0.2066 -0.2783 -0.9380
vn -0.0002 -0.0531 -0.9986
vn -0.0000 0.0843 -0.9964
vn 0.2080 0.2781 0.9377
vn 0.0001 0.0531 0.9986
vn -0.0000 -0.0476 0.9989
vn 0.0001 -0.0858 0.9963
vn 0.2043 -0.2784 -0.9385
vn -0.0051 0.0855 -0.9963
vn 0.2058 0.2783 0.9382
vn -0.0051 -0.0868 0.9962
vn -0.0000 0.0861 -0.9963
vn -0.0000 -0.0876 0.9962
vn -0.0051 0.0839 -0.9965
vn -0.0051 -0.0853 0.9963
vn 0.2051 -0.2784 -0.9383
vn 0.2065 0.2783 0.9380
vn -0.0000 -0.0000 -1.0000
vn -0.0000 -0.0000 1.0000
vt 0.628588 0.362933
vt 0.610766 0.487683
vt 0.610766 0.362933
vt 0.019812 0.001992
vt 0.001991 0.804985
vt 0.001991 0.001992
vt 0.479886 0.915901
vt 0.604635 0.933722
vt 0.479886 0.933722
vt 0.152439 0.001992
vt 0.134617 0.804985
vt 0.134617 0.001992
vt 0.286515 0.358944
vt 0.411264 0.448033
vt 0.286515 0.448033
vt 0.457897 0.358944
vt 0.582647 0.448033
vt 0.457897 0.448033
vt 0.627635 0.001992
vt 0.609814 0.053850
vt 0.609814 0.001992
vt 0.411264 0.358944
vt 0.422084 0.499890
vt 0.742245 0.358944
vt 0.760067 0.307086
vt 0.760067 0.358944
vt 0.582647 0.358944
vt 0.593466 0.499890
vt 0.890349 0.362933
vt 0.872528 0.414790
vt 0.872528 0.362933
vt 0.275695 0.307087
vt 0.741647 0.719885
vt 0.759468 0.668027
vt 0.759468 0.719885
vt 0.447078 0.307087
vt 0.627635 0.053850
vt 0.609814 0.358944
vt 0.422084 0.307087
vt 0.430730 0.804985
vt 0.742245 0.307086
vt 0.760067 0.001992
vt 0.593466 0.307087
vt 0.602113 0.804985
vt 0.890349 0.414790
vt 0.872528 0.719885
vt 0.275695 0.499890
vt 0.267049 0.001992
vt 0.741647 0.668027
vt 0.759468 0.362933
vt 0.438431 0.804985
vt 0.438431 0.001992
vt 0.849174 0.307086
vt 0.866995 0.001992
vt 0.866995 0.307086
vt 0.849174 0.358944
vt 0.866995 0.358944
vt 0.479886 0.826794
vt 0.604635 0.808973
vt 0.604635 0.826794
vt 0.979456 0.362933
vt 0.997278 0.414790
vt 0.979456 0.414790
vt 0.997278 0.719885
vt 0.979456 0.719885
vt 0.241546 0.001992
vt 0.259367 0.804985
vt 0.241546 0.804985
vt 0.848575 0.668027
vt 0.866397 0.362933
vt 0.866397 0.668027
vt 0.848575 0.719885
vt 0.866397 0.719885
vt 0.717695 0.362933
vt 0.735516 0.487683
vt 0.717695 0.487683
vt 0.716742 0.001992
vt 0.734563 0.053850
vt 0.716742 0.053850
vt 0.734563 0.358944
vt 0.716742 0.358944
vt 0.108919 0.001992
vt 0.126741 0.804985
vt 0.108919 0.804985
vt 0.831352 0.307086
vt 0.849174 0.001992
vt 0.831352 0.358944
vt 0.961635 0.362933
vt 0.961635 0.414790
vt 0.961635 0.719885
vt 0.223724 0.001992
vt 0.223724 0.804985
vt 0.830754 0.668027
vt 0.848575 0.362933
vt 0.830754 0.719885
vt 0.698921 0.001992
vt 0.698921 0.053850
vt 0.698921 0.358944
vt 0.091098 0.001992
vt 0.091098 0.804985
vt 0.813531 0.307086
vt 0.831352 0.001992
vt 0.813531 0.358944
vt 0.479886 0.862436
vt 0.604635 0.844616
vt 0.604635 0.862436
vt 0.943813 0.362933
vt 0.943813 0.414790
vt 0.943813 0.719885
vt 0.205903 0.001992
vt 0.205903 0.804985
vt 0.812933 0.668027
vt 0.830754 0.362933
vt 0.812933 0.719885
vt 0.682052 0.362933
vt 0.699873 0.487683
vt 0.682052 0.487683
vt 0.681099 0.001992
vt 0.681099 0.053850
vt 0.681099 0.358944
vt 0.073276 0.001992
vt 0.073276 0.804985
vt 0.795709 0.307086
vt 0.813531 0.001992
vt 0.795709 0.358944
vt 0.925992 0.362933
vt 0.925992 0.414790
vt 0.925992 0.719885
vt 0.188081 0.001992
vt 0.188081 0.804985
vt 0.795111 0.668027
vt 0.812933 0.362933
vt 0.795111 0.719885
vt 0.663278 0.001992
vt 0.663278 0.053850
vt 0.663278 0.358944
vt 0.055455 0.001992
vt 0.055455 0.804985
vt 0.777888 0.307086
vt 0.795709 0.001992
vt 0.777888 0.358944
vt 0.479886 0.898079
vt 0.604635 0.880259
vt 0.604635 0.898079
vt 0.908170 0.362933
vt 0.908170 0.414790
vt 0.908170 0.719885
vt 0.170260 0.001992
vt 0.170260 0.804985
vt 0.777290 0.668027
vt 0.795111 0.362933
vt 0.777290 0.719885
vt 0.646409 0.362933
vt 0.664230 0.487683
vt 0.646409 0.487683
vt 0.645456 0.001992
vt 0.645456 0.053850
vt 0.645456 0.358944
vt 0.037634 0.001992
vt 0.037634 0.804985
vt 0.777888 0.001992
vt 0.890349 0.719885
vt 0.152439 0.804985
vt 0.777290 0.362933
vt 0.627635 0.358944
vt 0.019812 0.804985
vt 0.479886 0.844616
vt 0.588522 0.839697
vt 0.495999 0.839697
vt 0.588522 0.831712
vt 0.495999 0.831712
vt 0.704792 0.379046
vt 0.704792 0.471569
vt 0.699873 0.362933
vt 0.712776 0.379046
vt 0.712776 0.471569
vt 0.479886 0.880259
vt 0.588522 0.875340
vt 0.495999 0.875340
vt 0.588522 0.867355
vt 0.495999 0.867355
vt 0.669149 0.379046
vt 0.669149 0.471569
vt 0.664230 0.362933
vt 0.677133 0.379046
vt 0.677133 0.471569
vt 0.588522 0.910982
vt 0.604635 0.915901
vt 0.495999 0.902998
vt 0.495999 0.910982
vt 0.588522 0.902998
vt 0.628588 0.487683
vt 0.633507 0.379046
vt 0.633507 0.471569
vt 0.641490 0.379046
vt 0.641490 0.471569
vt 0.105598 0.905485
vt 0.097614 0.994574
vt 0.097614 0.905485
vt 0.473755 0.901496
vt 0.384666 0.808973
vt 0.473755 0.808973
vt 0.113194 0.994574
vt 0.121178 0.905486
vt 0.121178 0.994574
vt 0.289446 0.808973
vt 0.378535 0.901496
vt 0.289446 0.901496
vt 0.194227 0.808973
vt 0.283316 0.901496
vt 0.194227 0.901496
vt 0.136758 0.994574
vt 0.128775 0.905486
vt 0.136758 0.905486
vt 0.188096 0.901497
vt 0.099007 0.808974
vt 0.188096 0.808974
vt 0.152338 0.905485
vt 0.144355 0.994574
vt 0.144355 0.905485
vt 0.092876 0.901497
vt 0.003787 0.808974
vt 0.092876 0.808974
vt 0.167919 0.905485
vt 0.159935 0.994574
vt 0.159935 0.905485
vt 0.001991 0.905485
vt 0.091079 0.998008
vt 0.001991 0.998008
vt 0.175515 0.994574
vt 0.183499 0.905486
vt 0.183499 0.994574
vt 0.447078 0.499890
vt 0.430730 0.001992
vt 0.742245 0.001992
vt 0.602113 0.001992
vt 0.267049 0.804985
vt 0.741647 0.362933
vt 0.479886 0.808973
vt 0.997278 0.362933
vt 0.259367 0.001992
vt 0.735516 0.362933
vt 0.734563 0.001992
vt 0.126741 0.001992
vt 0.105598 0.994574
vt 0.384666 0.901496
vt 0.113194 0.905486
vt 0.378535 0.808973
vt 0.283316 0.808973
vt 0.128775 0.994574
vt 0.099007 0.901497
vt 0.152338 0.994574
vt 0.003787 0.901497
vt 0.167919 0.994574
vt 0.091079 0.905485
vt 0.175515 0.905486
s 1
usemtl phong1SG
f 93/1/1 3/2/2 1/3/3
f 96/4/4 20/5/4 17/6/4
f 87/7/5 7/8/6 5/9/7
f 90/10/8 24/11/8 21/12/8
f 8/13/9 4/14/9 2/15/9
f 1/16/10 5/17/10 7/18/10
f 94/19/11 9/20/12 3/21/2
f 6/22/9 10/23/9 4/14/9
f 5/24/7 86/25/13 87/26/5
f 3/27/10 12/28/10 5/17/10
f 88/29/14 13/30/15 7/31/6
f 2/15/9 14/32/9 8/13/9
f 1/33/3 92/34/16 93/35/1
f 7/18/10 16/36/10 1/16/10
f 95/37/17 17/38/17 9/20/17
f 11/39/9 18/40/9 10/23/9
f 12/41/18 85/42/18 86/25/18
f 9/43/10 20/44/10 12/28/10
f 89/45/19 21/46/19 13/30/19
f 15/47/9 22/48/9 14/32/9
f 16/49/20 91/50/20 92/34/20
f 16/36/10 21/51/10 24/52/10
f 26/53/18 19/54/18 11/55/18
f 27/56/21 11/55/13 6/57/22
f 27/58/21 8/59/6 28/60/23
f 28/61/23 14/62/15 29/63/15
f 29/63/19 22/64/19 30/65/19
f 30/66/8 23/67/8 31/68/8
f 32/69/20 23/70/20 15/71/20
f 33/72/24 15/71/16 2/73/25
f 33/74/24 4/75/26 34/76/27
f 34/77/27 10/78/12 35/79/12
f 35/79/17 18/80/17 36/81/17
f 36/82/4 19/83/4 25/84/4
f 38/85/18 25/86/18 26/53/18
f 39/87/28 26/53/13 27/56/21
f 40/88/29 29/63/15 41/89/15
f 41/89/19 30/65/19 42/90/19
f 42/91/8 31/68/8 43/92/8
f 44/93/20 31/94/20 32/69/20
f 45/95/30 32/69/16 33/72/24
f 46/96/31 35/79/12 47/97/12
f 47/97/17 36/81/17 48/98/17
f 48/99/4 25/84/4 37/100/4
f 50/101/18 37/102/18 38/85/18
f 51/103/21 38/85/13 39/87/28
f 51/104/21 40/105/29 52/106/32
f 52/107/32 41/89/15 53/108/15
f 53/108/19 42/90/19 54/109/19
f 54/110/8 43/92/8 55/111/8
f 56/112/20 43/113/20 44/93/20
f 57/114/24 44/93/16 45/95/30
f 57/115/24 46/116/31 58/117/33
f 58/118/33 47/97/12 59/119/12
f 59/119/17 48/98/17 60/120/17
f 60/121/4 37/100/4 49/122/4
f 62/123/18 49/124/18 50/101/18
f 63/125/28 50/101/13 51/103/21
f 64/126/34 53/108/15 65/127/15
f 65/127/19 54/109/19 66/128/19
f 66/129/8 55/111/8 67/130/8
f 68/131/20 55/132/20 56/112/20
f 69/133/30 56/112/16 57/114/24
f 70/134/35 59/119/12 71/135/12
f 71/135/17 60/120/17 72/136/17
f 72/137/4 49/122/4 61/138/4
f 74/139/18 61/140/18 62/123/18
f 75/141/36 62/123/13 63/125/28
f 75/142/36 64/143/34 76/144/32
f 76/145/32 65/127/15 77/146/15
f 77/146/19 66/128/19 78/147/19
f 78/148/8 67/130/8 79/149/8
f 80/150/20 67/151/20 68/131/20
f 81/152/37 68/131/16 69/133/30
f 81/153/37 70/154/35 82/155/33
f 82/156/33 71/135/12 83/157/12
f 83/157/17 72/136/17 84/158/17
f 84/159/4 61/138/4 73/160/4
f 86/25/18 73/161/18 74/139/18
f 87/26/5 74/139/13 75/141/36
f 88/29/14 77/146/15 89/45/15
f 89/45/19 78/147/19 90/162/19
f 90/10/8 79/149/8 91/163/8
f 92/34/20 79/164/20 80/150/20
f 93/35/1 80/150/16 81/152/37
f 94/19/11 83/157/12 95/37/12
f 95/37/17 84/158/17 96/165/17
f 96/4/4 73/160/4 85/166/4
f 39/167/28 98/168/38 40/105/29
f 27/58/21 97/169/38 39/167/28
f 27/58/21 100/170/38 99/171/38
f 28/60/23 98/168/38 100/170/38
f 46/116/31 101/172/39 102/173/39
f 33/74/24 101/172/39 45/174/30
f 34/76/27 103/175/39 33/74/24
f 34/76/27 102/173/39 104/176/39
f 63/177/28 106/178/38 64/143/34
f 51/104/21 105/179/38 63/177/28
f 51/104/21 108/180/38 107/181/38
f 64/143/34 108/180/38 52/106/32
f 70/154/35 109/182/39 110/183/39
f 57/115/24 109/182/39 69/184/30
f 58/117/33 111/185/39 57/115/24
f 70/154/35 112/186/39 58/117/33
f 87/7/5 114/187/38 88/188/14
f 87/7/5 115/189/38 113/190/38
f 75/142/36 116/191/38 115/189/38
f 88/188/14 116/191/38 76/144/32
f 94/192/11 117/193/39 118/194/39
f 93/1/1 119/195/39 117/193/39
f 82/155/33 119/195/39 81/153/37
f 94/192/11 120/196/39 82/155/33
f 99/197/8 102/198/8 97/199/8
f 97/200/9 101/201/9 98/202/9
f 98/203/4 103/204/4 100/205/4
f 100/206/10 104/207/10 99/208/10
f 108/209/10 112/210/10 107/211/10
f 108/212/4 109/213/4 111/214/4
f 105/215/9 109/216/9 106/217/9
f 107/218/8 110/219/8 105/220/8
f 113/221/9 117/222/9 114/223/9
f 115/224/8 118/225/8 113/226/8
f 116/227/10 120/228/10 115/229/10
f 114/230/4 119/231/4 116/232/4
f 93/1/1 94/192/11 3/2/2
f 96/4/4 85/166/4 20/5/4
f 87/7/5 88/188/14 7/8/6
f 90/10/8 91/163/8 24/11/8
f 8/13/9 6/22/9 4/14/9
f 1/16/10 3/27/10 5/17/10
f 94/19/11 95/37/12 9/20/12
f 6/22/9 11/39/9 10/23/9
f 5/24/7 12/41/13 86/25/13
f 3/27/10 9/43/10 12/28/10
f 88/29/14 89/45/15 13/30/15
f 2/15/9 15/47/9 14/32/9
f 1/33/3 16/49/16 92/34/16
f 7/18/10 13/233/10 16/36/10
f 95/37/17 96/165/17 17/38/17
f 11/39/9 19/234/9 18/40/9
f 12/41/18 20/235/18 85/42/18
f 9/43/10 17/236/10 20/44/10
f 89/45/19 90/162/19 21/46/19
f 15/47/9 23/237/9 22/48/9
f 16/49/20 24/238/20 91/50/20
f 16/36/10 13/233/10 21/51/10
f 26/53/18 25/86/18 19/54/18
f 27/56/21 26/53/13 11/55/13
f 27/58/21 6/239/22 8/59/6
f 28/61/23 8/240/6 14/62/15
f 29/63/19 14/62/19 22/64/19
f 30/66/8 22/241/8 23/67/8
f 32/69/20 31/94/20 23/70/20
f 33/72/24 32/69/16 15/71/16
f 33/74/24 2/242/25 4/75/26
f 34/77/27 4/243/26 10/78/12
f 35/79/17 10/78/17 18/80/17
f 36/82/4 18/244/4 19/83/4
f 38/85/18 37/102/18 25/86/18
f 39/87/28 38/85/13 26/53/13
f 40/88/29 28/61/23 29/63/15
f 41/89/19 29/63/19 30/65/19
f 42/91/8 30/66/8 31/68/8
f 44/93/20 43/113/20 31/94/20
f 45/95/30 44/93/16 32/69/16
f 46/96/31 34/77/27 35/79/12
f 47/97/17 35/79/17 36/81/17
f 48/99/4 36/82/4 25/84/4
f 50/101/18 49/124/18 37/102/18
f 51/103/21 50/101/13 38/85/13
f 51/104/21 39/167/28 40/105/29
f 52/107/32 40/88/29 41/89/15
f 53/108/19 41/89/19 42/90/19
f 54/110/8 42/91/8 43/92/8
f 56/112/20 55/132/20 43/113/20
f 57/114/24 56/112/16 44/93/16
f 57/115/24 45/174/30 46/116/31
f 58/118/33 46/96/31 47/97/12
f 59/119/17 47/97/17 48/98/17
f 60/121/4 48/99/4 37/100/4
f 62/123/18 61/140/18 49/124/18
f 63/125/28 62/123/13 50/101/13
f 64/126/34 52/107/32 53/108/15
f 65/127/19 53/108/19 54/109/19
f 66/129/8 54/110/8 55/111/8
f 68/131/20 67/151/20 55/132/20
f 69/133/30 68/131/16 56/112/16
f 70/134/35 58/118/33 59/119/12
f 71/135/17 59/119/17 60/120/17
f 72/137/4 60/121/4 49/122/4
f 74/139/18 73/161/18 61/140/18
f 75/141/36 74/139/13 62/123/13
f 75/142/36 63/177/28 64/143/34
f 76/145/32 64/126/34 65/127/15
f 77/146/19 65/127/19 66/128/19
f 78/148/8 66/129/8 67/130/8
f 80/150/20 79/164/20 67/151/20
f 81/152/37 80/150/16 68/131/16
f 81/153/37 69/184/30 70/154/35
f 82/156/33 70/134/35 71/135/12
f 83/157/17 71/135/17 72/136/17
f 84/159/4 72/137/4 61/138/4
f 86/25/18 85/42/18 73/161/18
f 87/26/5 86/25/13 74/139/13
f 88/29/14 76/145/32 77/146/15
f 89/45/19 77/146/19 78/147/19
f 90/10/8 78/148/8 79/149/8
f 92/34/20 91/50/20 79/164/20
f 93/35/1 92/34/16 80/150/16
f 94/19/11 82/156/33 83/157/12
f 95/37/17 83/157/17 84/158/17
f 96/4/4 84/159/4 73/160/4
f 39/167/28 97/169/38 98/168/38
f 27/58/21 99/171/38 97/169/38
f 27/58/21 28/60/23 100/170/38
f 28/60/23 40/105/29 98/168/38
f 46/116/31 45/174/30 101/172/39
f 33/74/24 103/175/39 101/172/39
f 34/76/27 104/176/39 103/175/39
f 34/76/27 46/116/31 102/173/39
f 63/177/28 105/179/38 106/178/38
f 51/104/21 107/181/38 105/179/38
f 51/104/21 52/106/32 108/180/38
f 64/143/34 106/178/38 108/180/38
f 70/154/35 69/184/30 109/182/39
f 57/115/24 111/185/39 109/182/39
f 58/117/33 112/186/39 111/185/39
f 70/154/35 110/183/39 112/186/39
f 87/7/5 113/190/38 114/187/38
f 87/7/5 75/142/36 115/189/38
f 75/142/36 76/144/32 116/191/38
f 88/188/14 114/187/38 116/191/38
f 94/192/11 93/1/1 117/193/39
f 93/1/1 81/153/37 119/195/39
f 82/155/33 120/196/39 119/195/39
f 94/192/11 118/194/39 120/196/39
f 99/197/8 104/245/8 102/198/8
f 97/200/9 102/246/9 101/201/9
f 98/203/4 101/247/4 103/204/4
f 100/206/10 103/248/10 104/207/10
f 108/209/10 111/249/10 112/210/10
f 108/212/4 106/250/4 109/213/4
f 105/215/9 110/251/9 109/216/9
f 107/218/8 112/252/8 110/219/8
f 113/221/9 118/253/9 117/222/9
f 115/224/8 120/254/8 118/225/8
f 116/227/10 119/255/10 120/228/10
f 114/230/4 117/256/4 119/231/4
