# Blender 4.1.1
# www.blender.org
mtllib crossPlane.mtl
o 平面.001
v -1.000000 -0.707107 -0.707107
v 1.000000 -0.707107 -0.707107
v -1.000000 0.707107 0.707107
v 1.000000 0.707107 0.707107
v -1.000000 -0.707107 0.707107
v 1.000000 -0.707107 0.707107
v -1.000000 0.707107 -0.707107
v 1.000000 0.707107 -0.707107
v 0.000000 1.000000 1.000000
v -0.000000 -1.000000 1.000000
v 0.000000 1.000000 -1.000000
v -0.000000 -1.000000 -1.000000
vn -0.0000 -0.7071 0.7071
vn -0.0000 0.7071 0.7071
vn 1.0000 -0.0000 -0.0000
vt 1.000000 0.000000
vt 0.000000 1.000000
vt 0.000000 0.000000
vt 1.000000 1.000000
s 0
usemtl マテリアル
f 2/1/1 3/2/1 1/3/1
f 2/1/1 4/4/1 3/2/1
usemtl マテリアル.001
f 6/1/2 7/2/2 5/3/2
f 6/1/2 8/4/2 7/2/2
usemtl マテリアル.002
f 10/1/3 11/2/3 9/3/3
f 10/1/3 12/4/3 11/2/3
