# Blender 4.4.0
# www.blender.org
mtllib verticalRing.mtl
o primitiveRing
v 0.000000 2.253969 0.000000
v 0.000000 2.210659 0.439727
v 0.000000 3.200000 0.000000
v 0.000000 3.138512 0.624288
v 0.000000 2.210166 0.439629
v 0.000000 2.082397 0.862555
v 0.000000 3.138512 0.624288
v 0.000000 2.956416 1.224588
v 0.000000 2.081932 0.862362
v 0.000000 1.874108 1.252238
v 0.000000 2.956416 1.224588
v 0.000000 2.660704 1.777824
v 0.000000 1.873690 1.251958
v 0.000000 1.593799 1.593799
v 0.000000 2.660704 1.777824
v 0.000000 2.262740 2.262740
v 0.000000 1.593443 1.593443
v 0.000000 1.252238 1.874108
v 0.000000 2.262740 2.262740
v 0.000000 1.777824 2.660704
v 0.000000 1.251958 1.873690
v 0.000000 0.862555 2.082397
v 0.000000 1.777824 2.660704
v 0.000000 1.224588 2.956416
v 0.000000 0.862362 2.081932
v 0.000000 0.439727 2.210659
v 0.000000 1.224588 2.956416
v 0.000000 0.624288 3.138512
v 0.000000 0.439629 2.210166
v -0.000000 -0.000000 2.253969
v 0.000000 0.624288 3.138512
v -0.000000 -0.000000 3.200000
v -0.000000 -0.000000 2.253466
v -0.000000 -0.439727 2.210659
v -0.000000 -0.000000 3.200000
v -0.000000 -0.624288 3.138512
v -0.000000 -0.439629 2.210166
v -0.000000 -0.862555 2.082397
v -0.000000 -0.624288 3.138512
v -0.000000 -1.224588 2.956416
v -0.000000 -0.862362 2.081932
v -0.000000 -1.252238 1.874108
v -0.000000 -1.224588 2.956416
v -0.000000 -1.777824 2.660704
v -0.000000 -1.251958 1.873690
v -0.000000 -1.593799 1.593799
v -0.000000 -1.777824 2.660704
v -0.000000 -2.262740 2.262740
v -0.000000 -1.593443 1.593443
v -0.000000 -1.874108 1.252238
v -0.000000 -2.262740 2.262740
v -0.000000 -2.660704 1.777824
v -0.000000 -1.873690 1.251958
v -0.000000 -2.082397 0.862555
v -0.000000 -2.660704 1.777824
v -0.000000 -2.956416 1.224588
v -0.000000 -2.081932 0.862362
v -0.000000 -2.210659 0.439727
v -0.000000 -2.956416 1.224588
v -0.000000 -3.138512 0.624288
v -0.000000 -2.210166 0.439629
v -0.000000 -2.253969 -0.000000
v -0.000000 -3.138512 0.624288
v -0.000000 -3.200000 -0.000000
v -0.000000 -2.253466 -0.000000
v -0.000000 -2.210659 -0.439728
v -0.000000 -3.200000 -0.000000
v -0.000000 -3.138512 -0.624288
v -0.000000 -2.210166 -0.439630
v -0.000000 -2.082397 -0.862555
v -0.000000 -3.138512 -0.624288
v -0.000000 -2.956416 -1.224588
v -0.000000 -2.081932 -0.862362
v -0.000000 -1.874108 -1.252238
v -0.000000 -2.956416 -1.224588
v -0.000000 -2.660704 -1.777824
v -0.000000 -1.873690 -1.251958
v -0.000000 -1.593799 -1.593799
v -0.000000 -2.660704 -1.777824
v -0.000000 -2.262740 -2.262744
v -0.000000 -1.593443 -1.593443
v -0.000000 -1.252238 -1.874108
v -0.000000 -2.262740 -2.262744
v -0.000000 -1.777824 -2.660704
v -0.000000 -1.251958 -1.873690
v -0.000000 -0.862555 -2.082397
v -0.000000 -1.777824 -2.660704
v -0.000000 -1.224588 -2.956416
v -0.000000 -0.862362 -2.081932
v -0.000000 -0.439728 -2.210659
v -0.000000 -1.224588 -2.956416
v -0.000000 -0.624288 -3.138512
v -0.000000 -0.439630 -2.210166
v 0.000000 0.000000 -2.253969
v -0.000000 -0.624288 -3.138512
v 0.000000 0.000000 -3.200000
v 0.000000 0.000000 -2.253466
v 0.000000 0.439728 -2.210659
v 0.000000 0.000000 -3.200000
v 0.000000 0.624288 -3.138512
v 0.000000 0.439630 -2.210166
v 0.000000 0.862555 -2.082397
v 0.000000 0.624288 -3.138512
v 0.000000 1.224588 -2.956416
v 0.000000 0.862362 -2.081932
v 0.000000 1.252238 -1.874108
v 0.000000 1.224588 -2.956416
v 0.000000 1.777824 -2.660704
v 0.000000 1.251958 -1.873690
v 0.000000 1.593799 -1.593799
v 0.000000 1.777824 -2.660704
v 0.000000 2.262744 -2.262740
v 0.000000 1.593443 -1.593443
v 0.000000 1.874108 -1.252238
v 0.000000 2.262744 -2.262740
v 0.000000 2.660704 -1.777824
v 0.000000 1.873690 -1.251958
v 0.000000 2.082397 -0.862555
v 0.000000 2.660704 -1.777824
v 0.000000 2.956416 -1.224588
v 0.000000 2.081932 -0.862362
v 0.000000 2.210659 -0.439727
v 0.000000 2.956416 -1.224588
v 0.000000 3.138512 -0.624288
v 0.000000 2.210166 -0.439629
v 0.000000 2.253466 0.000000
v 0.000000 3.138512 -0.624288
v 0.000000 3.200000 0.000001
vn -1.0000 -0.0000 -0.0000
vt 0.000000 0.000000
vt 0.031250 0.000000
vt 0.031250 1.000000
vt 0.000000 1.000000
vt 0.062500 0.000000
vt 0.062500 1.000000
vt 0.093750 0.000000
vt 0.093750 1.000000
vt 0.125000 0.000000
vt 0.125000 1.000000
vt 0.156250 0.000000
vt 0.156250 1.000000
vt 0.187500 0.000000
vt 0.187500 1.000000
vt 0.218750 0.000000
vt 0.218750 1.000000
vt 0.250000 0.000000
vt 0.250000 1.000000
vt 0.281250 0.000000
vt 0.281250 1.000000
vt 0.312500 0.000000
vt 0.312500 1.000000
vt 0.343750 0.000000
vt 0.343750 1.000000
vt 0.375000 0.000000
vt 0.375000 1.000000
vt 0.406250 0.000000
vt 0.406250 1.000000
vt 0.437500 0.000000
vt 0.437500 1.000000
vt 0.468750 0.000000
vt 0.468750 1.000000
vt 0.500000 0.000000
vt 0.500000 1.000000
vt 0.531250 0.000000
vt 0.531250 1.000000
vt 0.562500 0.000000
vt 0.562500 1.000000
vt 0.593750 0.000000
vt 0.593750 1.000000
vt 0.625000 0.000000
vt 0.625000 1.000000
vt 0.656250 0.000000
vt 0.656250 1.000000
vt 0.687500 0.000000
vt 0.687500 1.000000
vt 0.718750 0.000000
vt 0.718750 1.000000
vt 0.750000 0.000000
vt 0.750000 1.000000
vt 0.781250 0.000000
vt 0.781250 1.000000
vt 0.812500 0.000000
vt 0.812500 1.000000
vt 0.843750 0.000000
vt 0.843750 1.000000
vt 0.875000 0.000000
vt 0.875000 1.000000
vt 0.906250 0.000000
vt 0.906250 1.000000
vt 0.937500 0.000000
vt 0.937500 1.000000
vt 0.968750 0.000000
vt 0.968750 1.000000
vt 1.000000 0.000000
vt 1.000000 1.000000
s 1
f 1/1/1 2/2/1 4/3/1
f 1/1/1 4/3/1 3/4/1
f 5/2/1 6/5/1 8/6/1
f 5/2/1 8/6/1 7/3/1
f 9/5/1 10/7/1 12/8/1
f 9/5/1 12/8/1 11/6/1
f 13/7/1 14/9/1 16/10/1
f 13/7/1 16/10/1 15/8/1
f 17/9/1 18/11/1 20/12/1
f 17/9/1 20/12/1 19/10/1
f 21/11/1 22/13/1 24/14/1
f 21/11/1 24/14/1 23/12/1
f 25/13/1 26/15/1 28/16/1
f 25/13/1 28/16/1 27/14/1
f 29/15/1 30/17/1 32/18/1
f 29/15/1 32/18/1 31/16/1
f 33/17/1 34/19/1 36/20/1
f 33/17/1 36/20/1 35/18/1
f 37/19/1 38/21/1 40/22/1
f 37/19/1 40/22/1 39/20/1
f 41/21/1 42/23/1 44/24/1
f 41/21/1 44/24/1 43/22/1
f 45/23/1 46/25/1 48/26/1
f 45/23/1 48/26/1 47/24/1
f 49/25/1 50/27/1 52/28/1
f 49/25/1 52/28/1 51/26/1
f 53/27/1 54/29/1 56/30/1
f 53/27/1 56/30/1 55/28/1
f 57/29/1 58/31/1 60/32/1
f 57/29/1 60/32/1 59/30/1
f 61/31/1 62/33/1 64/34/1
f 61/31/1 64/34/1 63/32/1
f 65/33/1 66/35/1 68/36/1
f 65/33/1 68/36/1 67/34/1
f 69/35/1 70/37/1 72/38/1
f 69/35/1 72/38/1 71/36/1
f 73/37/1 74/39/1 76/40/1
f 73/37/1 76/40/1 75/38/1
f 77/39/1 78/41/1 80/42/1
f 77/39/1 80/42/1 79/40/1
f 81/41/1 82/43/1 84/44/1
f 81/41/1 84/44/1 83/42/1
f 85/43/1 86/45/1 88/46/1
f 85/43/1 88/46/1 87/44/1
f 89/45/1 90/47/1 92/48/1
f 89/45/1 92/48/1 91/46/1
f 93/47/1 94/49/1 96/50/1
f 93/47/1 96/50/1 95/48/1
f 97/49/1 98/51/1 100/52/1
f 97/49/1 100/52/1 99/50/1
f 101/51/1 102/53/1 104/54/1
f 101/51/1 104/54/1 103/52/1
f 105/53/1 106/55/1 108/56/1
f 105/53/1 108/56/1 107/54/1
f 109/55/1 110/57/1 112/58/1
f 109/55/1 112/58/1 111/56/1
f 113/57/1 114/59/1 116/60/1
f 113/57/1 116/60/1 115/58/1
f 117/59/1 118/61/1 120/62/1
f 117/59/1 120/62/1 119/60/1
f 121/61/1 122/63/1 124/64/1
f 121/61/1 124/64/1 123/62/1
f 125/63/1 126/65/1 128/66/1
f 125/63/1 128/66/1 127/64/1
