{
	"asset":{
		"generator":"Khronos glTF Blender I/O v4.4.55",
		"version":"2.0"
	},
	"scene":0,
	"scenes":[
		{
			"name":"Scene",
			"nodes":[
				14
			]
		}
	],
	"nodes":[
		{
			"name":"\u30dc\u30fc\u30f3.004",
			"rotation":[
				0.0741780698299408,
				3.56252867307681e-15,
				1.7685428232994127e-08,
				0.9972449541091919
			],
			"scale":[
				1,
				1.0000001192092896,
				1.0000001192092896
			],
			"translation":[
				-5.328021044379103e-15,
				2.467534065246582,
				2.234734353123713e-08
			]
		},
		{
			"children":[
				0
			],
			"name":"bone_2",
			"rotation":[
				-0.046468429267406464,
				3.751054490213094e-15,
				-1.107893599083809e-08,
				0.9989197850227356
			],
			"scale":[
				1,
				0.9999999403953552,
				0.9999999403953552
			],
			"translation":[
				-2.5757174171303632e-14,
				3.364213228225708,
				-1.4901161193847656e-08
			]
		},
		{
			"name":"\u30dc\u30fc\u30f3.008",
			"rotation":[
				3.677600004785438e-17,
				0,
				7.927229152120287e-17,
				1
			],
			"translation":[
				-9.5367431640625e-07,
				4.186708450317383,
				4.583000645652646e-13
			]
		},
		{
			"children":[
				2
			],
			"name":"\u30dc\u30fc\u30f3.007",
			"rotation":[
				3.677600004785438e-17,
				2.842170943040401e-14,
				7.927227828631307e-17,
				1
			],
			"translation":[
				-9.5367431640625e-07,
				6.326581954956055,
				4.583000645652646e-13
			]
		},
		{
			"children":[
				3
			],
			"name":"\u30dc\u30fc\u30f3.006",
			"rotation":[
				-0.0038204214069992304,
				1.0679955586567758e-08,
				-1.4368335410352984e-09,
				0.9999927282333374
			],
			"scale":[
				1,
				0.9999998807907104,
				0.9999999403953552
			],
			"translation":[
				-9.398201541443996e-07,
				4.962168216705322,
				-1.3772787355037508e-09
			]
		},
		{
			"children":[
				4
			],
			"name":"bone_3",
			"rotation":[
				-0.035586003214120865,
				-0.04098113626241684,
				-0.7059182524681091,
				0.706210732460022
			],
			"scale":[
				1,
				0.9999998807907104,
				0.9999999403953552
			],
			"translation":[
				-2.5757174171303632e-14,
				3.364213228225708,
				-1.4901161193847656e-08
			]
		},
		{
			"name":"\u30dc\u30fc\u30f3.012",
			"rotation":[
				-7.933565355612443e-17,
				-1.4210854715202004e-14,
				-2.3717915139855473e-18,
				1
			],
			"translation":[
				2.6872655576465343e-13,
				4.186709403991699,
				-9.5367431640625e-07
			]
		},
		{
			"children":[
				6
			],
			"name":"\u30dc\u30fc\u30f3.011",
			"rotation":[
				3.582234855969979e-11,
				6.948759789793257e-09,
				-2.3283064365386963e-10,
				1
			],
			"translation":[
				5.595524044110789e-14,
				6.326580047607422,
				-9.528655482426984e-07
			]
		},
		{
			"children":[
				7
			],
			"name":"\u30dc\u30fc\u30f3.010",
			"rotation":[
				0.00270144478417933,
				0.7071015238761902,
				0.002701446646824479,
				0.7071017026901245
			],
			"scale":[
				0.9999998807907104,
				0.9999997019767761,
				0.9999998807907104
			],
			"translation":[
				-1.581884490065022e-08,
				4.962168216705322,
				7.651905775674095e-10
			]
		},
		{
			"children":[
				8
			],
			"name":"bone_4",
			"rotation":[
				0.7059182524681091,
				-0.706210732460022,
				0.03558644652366638,
				0.04098124802112579
			],
			"scale":[
				0.9999999403953552,
				0.9999998807907104,
				0.9999999403953552
			],
			"translation":[
				-2.5757174171303632e-14,
				3.364213228225708,
				-1.4901161193847656e-08
			]
		},
		{
			"children":[
				1,
				5,
				9
			],
			"name":"bone_1",
			"rotation":[
				0.11335153877735138,
				-1.050379299868693e-14,
				2.70251092615581e-08,
				0.9935550093650818
			],
			"scale":[
				1,
				0.9999999403953552,
				0.9999999403953552
			],
			"translation":[
				-2.1316282072803006e-14,
				3.7244837284088135,
				8.940696716308594e-08
			]
		},
		{
			"children":[
				10
			],
			"name":"bone_0",
			"rotation":[
				-0.06728796660900116,
				5.563724664383541e-17,
				-1.604270138955144e-08,
				0.9977335929870605
			],
			"scale":[
				1,
				0.9999999403953552,
				1
			],
			"translation":[
				-8.881784197001252e-16,
				4.8184123039245605,
				3.725290298461914e-09
			]
		},
		{
			"children":[
				11
			],
			"name":"bones",
			"rotation":[
				0.007911279797554016,
				1.1920556630684587e-07,
				9.430987102376776e-10,
				0.9999687075614929
			],
			"translation":[
				0,
				0.19912351667881012,
				-0.036274686455726624
			]
		},
		{
			"mesh":0,
			"name":"Player_0",
			"skin":0
		},
		{
			"children":[
				13,
				12
			],
			"name":"bossEnemyArmature"
		}
	],
	"animations":[
		{
			"channels":[
				{
					"sampler":0,
					"target":{
						"node":12,
						"path":"translation"
					}
				},
				{
					"sampler":1,
					"target":{
						"node":12,
						"path":"rotation"
					}
				},
				{
					"sampler":2,
					"target":{
						"node":12,
						"path":"scale"
					}
				},
				{
					"sampler":3,
					"target":{
						"node":11,
						"path":"translation"
					}
				},
				{
					"sampler":4,
					"target":{
						"node":11,
						"path":"rotation"
					}
				},
				{
					"sampler":5,
					"target":{
						"node":11,
						"path":"scale"
					}
				},
				{
					"sampler":6,
					"target":{
						"node":10,
						"path":"translation"
					}
				},
				{
					"sampler":7,
					"target":{
						"node":10,
						"path":"rotation"
					}
				},
				{
					"sampler":8,
					"target":{
						"node":10,
						"path":"scale"
					}
				},
				{
					"sampler":9,
					"target":{
						"node":1,
						"path":"translation"
					}
				},
				{
					"sampler":10,
					"target":{
						"node":1,
						"path":"rotation"
					}
				},
				{
					"sampler":11,
					"target":{
						"node":1,
						"path":"scale"
					}
				},
				{
					"sampler":12,
					"target":{
						"node":0,
						"path":"translation"
					}
				},
				{
					"sampler":13,
					"target":{
						"node":0,
						"path":"rotation"
					}
				},
				{
					"sampler":14,
					"target":{
						"node":0,
						"path":"scale"
					}
				},
				{
					"sampler":15,
					"target":{
						"node":5,
						"path":"translation"
					}
				},
				{
					"sampler":16,
					"target":{
						"node":5,
						"path":"rotation"
					}
				},
				{
					"sampler":17,
					"target":{
						"node":5,
						"path":"scale"
					}
				},
				{
					"sampler":18,
					"target":{
						"node":4,
						"path":"translation"
					}
				},
				{
					"sampler":19,
					"target":{
						"node":4,
						"path":"rotation"
					}
				},
				{
					"sampler":20,
					"target":{
						"node":4,
						"path":"scale"
					}
				},
				{
					"sampler":21,
					"target":{
						"node":3,
						"path":"translation"
					}
				},
				{
					"sampler":22,
					"target":{
						"node":3,
						"path":"rotation"
					}
				},
				{
					"sampler":23,
					"target":{
						"node":3,
						"path":"scale"
					}
				},
				{
					"sampler":24,
					"target":{
						"node":2,
						"path":"translation"
					}
				},
				{
					"sampler":25,
					"target":{
						"node":2,
						"path":"rotation"
					}
				},
				{
					"sampler":26,
					"target":{
						"node":2,
						"path":"scale"
					}
				},
				{
					"sampler":27,
					"target":{
						"node":9,
						"path":"translation"
					}
				},
				{
					"sampler":28,
					"target":{
						"node":9,
						"path":"rotation"
					}
				},
				{
					"sampler":29,
					"target":{
						"node":9,
						"path":"scale"
					}
				},
				{
					"sampler":30,
					"target":{
						"node":8,
						"path":"translation"
					}
				},
				{
					"sampler":31,
					"target":{
						"node":8,
						"path":"rotation"
					}
				},
				{
					"sampler":32,
					"target":{
						"node":8,
						"path":"scale"
					}
				},
				{
					"sampler":33,
					"target":{
						"node":7,
						"path":"translation"
					}
				},
				{
					"sampler":34,
					"target":{
						"node":7,
						"path":"rotation"
					}
				},
				{
					"sampler":35,
					"target":{
						"node":7,
						"path":"scale"
					}
				},
				{
					"sampler":36,
					"target":{
						"node":6,
						"path":"translation"
					}
				},
				{
					"sampler":37,
					"target":{
						"node":6,
						"path":"rotation"
					}
				},
				{
					"sampler":38,
					"target":{
						"node":6,
						"path":"scale"
					}
				}
			],
			"name":"idle",
			"samplers":[
				{
					"input":8,
					"interpolation":"STEP",
					"output":9
				},
				{
					"input":8,
					"interpolation":"STEP",
					"output":10
				},
				{
					"input":8,
					"interpolation":"STEP",
					"output":11
				},
				{
					"input":8,
					"interpolation":"STEP",
					"output":12
				},
				{
					"input":13,
					"interpolation":"LINEAR",
					"output":14
				},
				{
					"input":8,
					"interpolation":"STEP",
					"output":15
				},
				{
					"input":8,
					"interpolation":"STEP",
					"output":16
				},
				{
					"input":13,
					"interpolation":"LINEAR",
					"output":17
				},
				{
					"input":8,
					"interpolation":"STEP",
					"output":18
				},
				{
					"input":8,
					"interpolation":"STEP",
					"output":19
				},
				{
					"input":8,
					"interpolation":"STEP",
					"output":20
				},
				{
					"input":8,
					"interpolation":"STEP",
					"output":21
				},
				{
					"input":8,
					"interpolation":"STEP",
					"output":22
				},
				{
					"input":13,
					"interpolation":"LINEAR",
					"output":23
				},
				{
					"input":8,
					"interpolation":"STEP",
					"output":24
				},
				{
					"input":8,
					"interpolation":"STEP",
					"output":25
				},
				{
					"input":13,
					"interpolation":"LINEAR",
					"output":26
				},
				{
					"input":8,
					"interpolation":"STEP",
					"output":27
				},
				{
					"input":8,
					"interpolation":"STEP",
					"output":28
				},
				{
					"input":13,
					"interpolation":"LINEAR",
					"output":29
				},
				{
					"input":8,
					"interpolation":"STEP",
					"output":30
				},
				{
					"input":8,
					"interpolation":"STEP",
					"output":31
				},
				{
					"input":8,
					"interpolation":"STEP",
					"output":32
				},
				{
					"input":8,
					"interpolation":"STEP",
					"output":33
				},
				{
					"input":8,
					"interpolation":"STEP",
					"output":34
				},
				{
					"input":8,
					"interpolation":"STEP",
					"output":35
				},
				{
					"input":8,
					"interpolation":"STEP",
					"output":36
				},
				{
					"input":8,
					"interpolation":"STEP",
					"output":37
				},
				{
					"input":13,
					"interpolation":"LINEAR",
					"output":38
				},
				{
					"input":8,
					"interpolation":"STEP",
					"output":39
				},
				{
					"input":8,
					"interpolation":"STEP",
					"output":40
				},
				{
					"input":13,
					"interpolation":"LINEAR",
					"output":41
				},
				{
					"input":8,
					"interpolation":"STEP",
					"output":42
				},
				{
					"input":8,
					"interpolation":"STEP",
					"output":43
				},
				{
					"input":8,
					"interpolation":"STEP",
					"output":44
				},
				{
					"input":8,
					"interpolation":"STEP",
					"output":45
				},
				{
					"input":8,
					"interpolation":"STEP",
					"output":46
				},
				{
					"input":8,
					"interpolation":"STEP",
					"output":47
				},
				{
					"input":8,
					"interpolation":"STEP",
					"output":48
				}
			]
		}
	],
	"meshes":[
		{
			"name":"\u5e73\u9762.049",
			"primitives":[
				{
					"attributes":{
						"POSITION":0,
						"NORMAL":1,
						"TEXCOORD_0":2,
						"TEXCOORD_1":3,
						"JOINTS_0":4,
						"WEIGHTS_0":5
					},
					"indices":6
				}
			]
		}
	],
	"skins":[
		{
			"inverseBindMatrices":7,
			"joints":[
				12,
				11,
				10,
				1,
				0,
				5,
				4,
				3,
				2,
				9,
				8,
				7,
				6
			],
			"name":"bossEnemyArmature"
		}
	],
	"accessors":[
		{
			"bufferView":0,
			"componentType":5126,
			"count":470,
			"max":[
				17.411115646362305,
				21.98199462890625,
				3.595658302307129
			],
			"min":[
				-18.732009887695312,
				-0.15597490966320038,
				-4.146322250366211
			],
			"type":"VEC3"
		},
		{
			"bufferView":1,
			"componentType":5126,
			"count":470,
			"type":"VEC3"
		},
		{
			"bufferView":2,
			"componentType":5126,
			"count":470,
			"type":"VEC2"
		},
		{
			"bufferView":3,
			"componentType":5126,
			"count":470,
			"type":"VEC2"
		},
		{
			"bufferView":4,
			"componentType":5121,
			"count":470,
			"type":"VEC4"
		},
		{
			"bufferView":5,
			"componentType":5126,
			"count":470,
			"type":"VEC4"
		},
		{
			"bufferView":6,
			"componentType":5123,
			"count":1380,
			"type":"SCALAR"
		},
		{
			"bufferView":7,
			"componentType":5126,
			"count":13,
			"type":"MAT4"
		},
		{
			"bufferView":8,
			"componentType":5126,
			"count":2,
			"max":[
				1.875
			],
			"min":[
				0
			],
			"type":"SCALAR"
		},
		{
			"bufferView":9,
			"componentType":5126,
			"count":2,
			"type":"VEC3"
		},
		{
			"bufferView":10,
			"componentType":5126,
			"count":2,
			"type":"VEC4"
		},
		{
			"bufferView":11,
			"componentType":5126,
			"count":2,
			"type":"VEC3"
		},
		{
			"bufferView":12,
			"componentType":5126,
			"count":2,
			"type":"VEC3"
		},
		{
			"bufferView":13,
			"componentType":5126,
			"count":46,
			"max":[
				1.875
			],
			"min":[
				0
			],
			"type":"SCALAR"
		},
		{
			"bufferView":14,
			"componentType":5126,
			"count":46,
			"type":"VEC4"
		},
		{
			"bufferView":15,
			"componentType":5126,
			"count":2,
			"type":"VEC3"
		},
		{
			"bufferView":16,
			"componentType":5126,
			"count":2,
			"type":"VEC3"
		},
		{
			"bufferView":17,
			"componentType":5126,
			"count":46,
			"type":"VEC4"
		},
		{
			"bufferView":18,
			"componentType":5126,
			"count":2,
			"type":"VEC3"
		},
		{
			"bufferView":19,
			"componentType":5126,
			"count":2,
			"type":"VEC3"
		},
		{
			"bufferView":20,
			"componentType":5126,
			"count":2,
			"type":"VEC4"
		},
		{
			"bufferView":21,
			"componentType":5126,
			"count":2,
			"type":"VEC3"
		},
		{
			"bufferView":22,
			"componentType":5126,
			"count":2,
			"type":"VEC3"
		},
		{
			"bufferView":23,
			"componentType":5126,
			"count":46,
			"type":"VEC4"
		},
		{
			"bufferView":24,
			"componentType":5126,
			"count":2,
			"type":"VEC3"
		},
		{
			"bufferView":25,
			"componentType":5126,
			"count":2,
			"type":"VEC3"
		},
		{
			"bufferView":26,
			"componentType":5126,
			"count":46,
			"type":"VEC4"
		},
		{
			"bufferView":27,
			"componentType":5126,
			"count":2,
			"type":"VEC3"
		},
		{
			"bufferView":28,
			"componentType":5126,
			"count":2,
			"type":"VEC3"
		},
		{
			"bufferView":29,
			"componentType":5126,
			"count":46,
			"type":"VEC4"
		},
		{
			"bufferView":30,
			"componentType":5126,
			"count":2,
			"type":"VEC3"
		},
		{
			"bufferView":31,
			"componentType":5126,
			"count":2,
			"type":"VEC3"
		},
		{
			"bufferView":32,
			"componentType":5126,
			"count":2,
			"type":"VEC4"
		},
		{
			"bufferView":33,
			"componentType":5126,
			"count":2,
			"type":"VEC3"
		},
		{
			"bufferView":34,
			"componentType":5126,
			"count":2,
			"type":"VEC3"
		},
		{
			"bufferView":35,
			"componentType":5126,
			"count":2,
			"type":"VEC4"
		},
		{
			"bufferView":36,
			"componentType":5126,
			"count":2,
			"type":"VEC3"
		},
		{
			"bufferView":37,
			"componentType":5126,
			"count":2,
			"type":"VEC3"
		},
		{
			"bufferView":38,
			"componentType":5126,
			"count":46,
			"type":"VEC4"
		},
		{
			"bufferView":39,
			"componentType":5126,
			"count":2,
			"type":"VEC3"
		},
		{
			"bufferView":40,
			"componentType":5126,
			"count":2,
			"type":"VEC3"
		},
		{
			"bufferView":41,
			"componentType":5126,
			"count":46,
			"type":"VEC4"
		},
		{
			"bufferView":42,
			"componentType":5126,
			"count":2,
			"type":"VEC3"
		},
		{
			"bufferView":43,
			"componentType":5126,
			"count":2,
			"type":"VEC3"
		},
		{
			"bufferView":44,
			"componentType":5126,
			"count":2,
			"type":"VEC4"
		},
		{
			"bufferView":45,
			"componentType":5126,
			"count":2,
			"type":"VEC3"
		},
		{
			"bufferView":46,
			"componentType":5126,
			"count":2,
			"type":"VEC3"
		},
		{
			"bufferView":47,
			"componentType":5126,
			"count":2,
			"type":"VEC4"
		},
		{
			"bufferView":48,
			"componentType":5126,
			"count":2,
			"type":"VEC3"
		}
	],
	"bufferViews":[
		{
			"buffer":0,
			"byteLength":5640,
			"byteOffset":0,
			"target":34962
		},
		{
			"buffer":0,
			"byteLength":5640,
			"byteOffset":5640,
			"target":34962
		},
		{
			"buffer":0,
			"byteLength":3760,
			"byteOffset":11280,
			"target":34962
		},
		{
			"buffer":0,
			"byteLength":3760,
			"byteOffset":15040,
			"target":34962
		},
		{
			"buffer":0,
			"byteLength":1880,
			"byteOffset":18800,
			"target":34962
		},
		{
			"buffer":0,
			"byteLength":7520,
			"byteOffset":20680,
			"target":34962
		},
		{
			"buffer":0,
			"byteLength":2760,
			"byteOffset":28200,
			"target":34963
		},
		{
			"buffer":0,
			"byteLength":832,
			"byteOffset":30960
		},
		{
			"buffer":0,
			"byteLength":8,
			"byteOffset":31792
		},
		{
			"buffer":0,
			"byteLength":24,
			"byteOffset":31800
		},
		{
			"buffer":0,
			"byteLength":32,
			"byteOffset":31824
		},
		{
			"buffer":0,
			"byteLength":24,
			"byteOffset":31856
		},
		{
			"buffer":0,
			"byteLength":24,
			"byteOffset":31880
		},
		{
			"buffer":0,
			"byteLength":184,
			"byteOffset":31904
		},
		{
			"buffer":0,
			"byteLength":736,
			"byteOffset":32088
		},
		{
			"buffer":0,
			"byteLength":24,
			"byteOffset":32824
		},
		{
			"buffer":0,
			"byteLength":24,
			"byteOffset":32848
		},
		{
			"buffer":0,
			"byteLength":736,
			"byteOffset":32872
		},
		{
			"buffer":0,
			"byteLength":24,
			"byteOffset":33608
		},
		{
			"buffer":0,
			"byteLength":24,
			"byteOffset":33632
		},
		{
			"buffer":0,
			"byteLength":32,
			"byteOffset":33656
		},
		{
			"buffer":0,
			"byteLength":24,
			"byteOffset":33688
		},
		{
			"buffer":0,
			"byteLength":24,
			"byteOffset":33712
		},
		{
			"buffer":0,
			"byteLength":736,
			"byteOffset":33736
		},
		{
			"buffer":0,
			"byteLength":24,
			"byteOffset":34472
		},
		{
			"buffer":0,
			"byteLength":24,
			"byteOffset":34496
		},
		{
			"buffer":0,
			"byteLength":736,
			"byteOffset":34520
		},
		{
			"buffer":0,
			"byteLength":24,
			"byteOffset":35256
		},
		{
			"buffer":0,
			"byteLength":24,
			"byteOffset":35280
		},
		{
			"buffer":0,
			"byteLength":736,
			"byteOffset":35304
		},
		{
			"buffer":0,
			"byteLength":24,
			"byteOffset":36040
		},
		{
			"buffer":0,
			"byteLength":24,
			"byteOffset":36064
		},
		{
			"buffer":0,
			"byteLength":32,
			"byteOffset":36088
		},
		{
			"buffer":0,
			"byteLength":24,
			"byteOffset":36120
		},
		{
			"buffer":0,
			"byteLength":24,
			"byteOffset":36144
		},
		{
			"buffer":0,
			"byteLength":32,
			"byteOffset":36168
		},
		{
			"buffer":0,
			"byteLength":24,
			"byteOffset":36200
		},
		{
			"buffer":0,
			"byteLength":24,
			"byteOffset":36224
		},
		{
			"buffer":0,
			"byteLength":736,
			"byteOffset":36248
		},
		{
			"buffer":0,
			"byteLength":24,
			"byteOffset":36984
		},
		{
			"buffer":0,
			"byteLength":24,
			"byteOffset":37008
		},
		{
			"buffer":0,
			"byteLength":736,
			"byteOffset":37032
		},
		{
			"buffer":0,
			"byteLength":24,
			"byteOffset":37768
		},
		{
			"buffer":0,
			"byteLength":24,
			"byteOffset":37792
		},
		{
			"buffer":0,
			"byteLength":32,
			"byteOffset":37816
		},
		{
			"buffer":0,
			"byteLength":24,
			"byteOffset":37848
		},
		{
			"buffer":0,
			"byteLength":24,
			"byteOffset":37872
		},
		{
			"buffer":0,
			"byteLength":32,
			"byteOffset":37896
		},
		{
			"buffer":0,
			"byteLength":24,
			"byteOffset":37928
		}
	],
	"buffers":[
		{
			"byteLength":37952,
			"uri":"bossEnemy.bin"
		}
	]
}
